<svg xmlns="http://www.w3.org/2000/svg" width="429" height="203" fill="none"><g fill="#1F1F1F" clip-path="url(#a)"><path d="M83.957 134.686v-1.336h1.093q.263.005.518-.058a.8.8 0 0 0 .4-.226c.132-.135.227-.302.276-.484q.099-.411.092-.834v-11.944a3.3 3.3 0 0 0-.092-.835 1.2 1.2 0 0 0-.275-.492.9.9 0 0 0-.401-.226 2.6 2.6 0 0 0-.518-.05h-1.093v-1.335h8.647v1.335h-1.052a2.5 2.5 0 0 0-.509.05.94.94 0 0 0-.409.226 1.3 1.3 0 0 0-.267.492 3 3 0 0 0-.1.835v11.952c-.006.281.028.562.1.835.05.179.142.345.267.484a.84.84 0 0 0 .41.225q.25.062.508.058h1.052v1.328zm24.013 0-9.765-13.797v10.85q-.01.425.1.835c.056.179.15.344.275.484a.83.83 0 0 0 .41.225q.246.061.5.059h1.052v1.344h-6.544v-1.336h1.068q.255.005.501-.058a.84.84 0 0 0 .41-.226c.13-.135.225-.302.274-.484.073-.272.107-.553.1-.834v-12.086a2.4 2.4 0 0 0-.108-.835 1.04 1.04 0 0 0-.275-.451.9.9 0 0 0-.41-.217 2.3 2.3 0 0 0-.492-.058h-1.068v-1.26h5.567l8.839 12.519v-9.698a2.3 2.3 0 0 0-.108-.835 1.05 1.05 0 0 0-.276-.451.9.9 0 0 0-.417-.217 2.3 2.3 0 0 0-.484-.058h-1.052v-1.26h6.527v1.318h-1.035a2.3 2.3 0 0 0-.492.059.83.83 0 0 0-.409.225 1.15 1.15 0 0 0-.276.493 2.9 2.9 0 0 0-.1.834v14.916zm22.895-9.24a12 12 0 0 1-.568 3.764 8.1 8.1 0 0 1-1.669 2.93 7.7 7.7 0 0 1-2.78 1.895 10 10 0 0 1-3.839.684h-8.28v-1.336h1.052q.262.006.517-.058a.84.84 0 0 0 .401-.225c.131-.134.224-.302.267-.484q.108-.412.1-.835v-12.119a2.6 2.6 0 0 0-.1-.835.9.9 0 0 0-.275-.451.85.85 0 0 0-.409-.217 2.4 2.4 0 0 0-.501-.058h-1.052v-1.26h8.272a12 12 0 0 1 3.722.542 7.5 7.5 0 0 1 2.788 1.669 7.1 7.1 0 0 1 1.744 2.696c.42 1.187.626 2.439.61 3.698m-4.232 0q0-3.58-1.319-5.325a4.53 4.53 0 0 0-3.864-1.753h-1.436v14.798h1.411a4.7 4.7 0 0 0 2.262-.534 4.55 4.55 0 0 0 1.669-1.535 7.3 7.3 0 0 0 .985-2.429c.222-1.059.32-2.14.292-3.222m23.913-7.287h-1.077a2.4 2.4 0 0 0-.492.059.83.83 0 0 0-.409.225 1.15 1.15 0 0 0-.276.493 3.3 3.3 0 0 0-.092.834v9.774a6.9 6.9 0 0 1-.359 2.262 4.2 4.2 0 0 1-1.126 1.669 5 5 0 0 1-1.953 1.069 9.4 9.4 0 0 1-2.822.375 12.5 12.5 0 0 1-2.929-.309 5.8 5.8 0 0 1-2.187-1.001 4.4 4.4 0 0 1-1.36-1.761 6.55 6.55 0 0 1-.468-2.629v-9.557a2.3 2.3 0 0 0-.108-.835 1.05 1.05 0 0 0-.276-.451.94.94 0 0 0-.409-.217 2.2 2.2 0 0 0-.484-.058h-1.093v-1.26h8.655v1.318h-1.052q-.248.003-.492.059a.83.83 0 0 0-.409.225 1.15 1.15 0 0 0-.275.493 2.9 2.9 0 0 0-.101.834v9.674a5.2 5.2 0 0 0 .267 1.769c.15.439.409.832.752 1.144.337.298.74.513 1.177.626a5.8 5.8 0 0 0 1.535.192 5 5 0 0 0 1.503-.217c.428-.129.82-.358 1.143-.668a2.9 2.9 0 0 0 .726-1.152 4.6 4.6 0 0 0 .259-1.669v-9.807a2.6 2.6 0 0 0-.1-.835.9.9 0 0 0-.276-.451.84.84 0 0 0-.409-.217 2.3 2.3 0 0 0-.484-.058h-1.051v-1.26h6.552zm7.019 16.802a10.7 10.7 0 0 1-2.813-.317 5.5 5.5 0 0 1-1.802-.835 3 3 0 0 1-.969-1.127 2.9 2.9 0 0 1-.283-1.235 2.24 2.24 0 0 1 .233-1.085c.156-.286.373-.533.635-.726.276-.188.584-.324.909-.401a4.5 4.5 0 0 1 1.06-.125c-.01.641.074 1.279.251 1.895.147.492.388.951.709 1.352.29.361.662.648 1.085.835.435.187.904.281 1.377.275.443.009.884-.062 1.303-.209.362-.123.696-.316.984-.567.259-.233.467-.517.61-.835.138-.339.209-.702.208-1.068a2.4 2.4 0 0 0-.258-1.127 2.9 2.9 0 0 0-.777-.918 7 7 0 0 0-1.31-.835 40 40 0 0 0-1.836-.835 14.7 14.7 0 0 1-2.212-1.101 6.3 6.3 0 0 1-1.444-1.236 4 4 0 0 1-.835-1.427 5.7 5.7 0 0 1-.233-1.669 4.6 4.6 0 0 1 .459-2.078 4.9 4.9 0 0 1 1.327-1.57 6 6 0 0 1 1.945-1.009 8.2 8.2 0 0 1 2.445-.359c.802-.012 1.602.063 2.387.225.585.12 1.147.329 1.669.618.394.228.729.545.977.926.207.346.317.741.317 1.144a1.79 1.79 0 0 1-.768 1.494 2.9 2.9 0 0 1-.968.442 5 5 0 0 1-1.344.159 5 5 0 0 0-.142-1.127 3.7 3.7 0 0 0-.459-1.127 2.9 2.9 0 0 0-.834-.835 2.2 2.2 0 0 0-1.227-.342c-.326-.001-.65.05-.96.15a2.2 2.2 0 0 0-.785.443 2.05 2.05 0 0 0-.534.726 2.5 2.5 0 0 0-.192.993c-.001.338.056.674.167.993.141.347.358.658.634.91.379.352.803.653 1.261.893q1.004.546 2.07.96c.755.302 1.487.662 2.187 1.077a7 7 0 0 1 1.485 1.177c.371.399.655.871.835 1.385.183.537.273 1.102.267 1.669a5.2 5.2 0 0 1-.476 2.221 5.1 5.1 0 0 1-1.369 1.727 6.7 6.7 0 0 1-2.153 1.127 9.2 9.2 0 0 1-2.813.309m17.712-3.205q-.01.423.1.835c.049.182.144.348.275.484a.84.84 0 0 0 .409.225q.247.062.501.058h1.052v1.328h-8.647v-1.336h1.051q.263.005.518-.058a.74.74 0 0 0 .4-.226c.132-.135.226-.302.276-.484q.098-.411.092-.834v-13.355H169.3a3.1 3.1 0 0 0-.943.125 1.7 1.7 0 0 0-.617.351c-.16.152-.281.341-.351.551a3.6 3.6 0 0 0-.167.751l-.167 1.552h-1.669l.133-4.857h15.608l.117 4.857h-1.669l-.184-1.552a3.6 3.6 0 0 0-.167-.751 1.4 1.4 0 0 0-.358-.551 1.6 1.6 0 0 0-.618-.351 3 3 0 0 0-.935-.125h-2.036zm6.885 1.627h1.052a2.3 2.3 0 0 0 .493-.05.95.95 0 0 0 .409-.2 1 1 0 0 0 .275-.451c.082-.256.118-.524.108-.793v-12.227a2.3 2.3 0 0 0-.108-.835 1.04 1.04 0 0 0-.275-.451.9.9 0 0 0-.409-.217 2.3 2.3 0 0 0-.493-.058h-1.052v-1.26h8.055q3.538 0 5.2 1.185a3.99 3.99 0 0 1 1.669 3.447 4.8 4.8 0 0 1-.3 1.761 4.4 4.4 0 0 1-.777 1.344 4.8 4.8 0 0 1-1.093.976 6.5 6.5 0 0 1-1.244.651l2.98 5.134q.283.48.618.926.265.35.601.634c.183.158.392.282.617.368.217.077.446.117.676.116h.092v1.303h-.834q-.983.004-1.962-.092a5.3 5.3 0 0 1-1.469-.334 3.3 3.3 0 0 1-1.085-.693 4.7 4.7 0 0 1-.835-1.135l-2.971-5.509h-1.669v4.933q-.011.404.1.793c.055.172.153.327.284.451a.94.94 0 0 0 .409.2q.244.051.492.05h1.077v1.336h-8.631zm6.285-7.887h1.403c.494.017.987-.063 1.452-.234.367-.137.688-.374.926-.684.249-.343.42-.736.501-1.152.115-.529.168-1.07.159-1.611a6.4 6.4 0 0 0-.176-1.611 2.6 2.6 0 0 0-.534-1.085 2.2 2.2 0 0 0-.951-.609 4.7 4.7 0 0 0-1.419-.192h-1.361zm14.081 9.19v-1.336h1.177q.283.021.567 0a.94.94 0 0 0 .459-.192c.145-.122.254-.281.318-.459.083-.27.119-.552.108-.835v-3.48l-4.632-8.889a7 7 0 0 0-.342-.626 1.8 1.8 0 0 0-.368-.409 1.3 1.3 0 0 0-.442-.225 2.2 2.2 0 0 0-.618-.076h-.333v-1.318h8.346v1.318h-.426a1.8 1.8 0 0 0-1.135.309 1.02 1.02 0 0 0-.367.835c.001.236.041.47.117.693q.105.355.259.692l1.861 3.681q.39.789.643 1.402c.166.409.317.835.459 1.202.167-.442.367-.926.592-1.444a46 46 0 0 1 .751-1.619l1.453-2.996q.23-.438.35-.918.065-.289.075-.585a1.1 1.1 0 0 0-.085-.523 1.1 1.1 0 0 0-.324-.42 2.14 2.14 0 0 0-1.235-.292h-.576v-1.335h6.552v1.318h-.476a1.5 1.5 0 0 0-.542.092 1.05 1.05 0 0 0-.434.301 3.5 3.5 0 0 0-.409.601c-.15.25-.317.576-.509.968l-4.257 8.288v3.422c-.009.282.028.564.109.835.057.177.161.335.3.459a.83.83 0 0 0 .442.2q.272.02.543 0h1.235v1.361zm13.872-5.484v-2.629h6.51v2.629zm7.837 4.181h1.035q.245.001.484-.05a.9.9 0 0 0 .409-.2 1 1 0 0 0 .284-.451 2.6 2.6 0 0 0 .1-.793v-12.227a2.6 2.6 0 0 0-.1-.835 1.05 1.05 0 0 0-.284-.451.84.84 0 0 0-.409-.217 2.3 2.3 0 0 0-.484-.058h-1.051v-1.26h8.062c2.371 0 4.099.392 5.209 1.185a3.99 3.99 0 0 1 1.669 3.447c.009.6-.09 1.196-.292 1.761-.178.49-.441.945-.776 1.344a5 5 0 0 1-1.094.976q-.592.39-1.252.651l2.988 5.134q.279.483.618.926.266.35.601.634c.355.313.812.486 1.285.484h.1v1.303h-.834q-.983.004-1.962-.092a5.2 5.2 0 0 1-1.469-.334 3.4 3.4 0 0 1-1.093-.693 4.9 4.9 0 0 1-.835-1.135l-2.971-5.509h-1.669v4.933q-.012.404.1.793a.93.93 0 0 0 .284.451c.116.101.257.17.409.2q.239.051.484.05h1.076v1.336h-8.622zm6.285-7.887h1.428c.494.015.987-.064 1.452-.234.365-.139.686-.376.926-.684.249-.343.42-.736.501-1.152.107-.53.158-1.07.15-1.611a6.8 6.8 0 0 0-.167-1.611 2.6 2.6 0 0 0-.542-1.085 2.1 2.1 0 0 0-.952-.609 4.7 4.7 0 0 0-1.419-.192h-1.352zm16.176 3.347-.726 2.153a9 9 0 0 0-.2.718q-.096.349-.109.71a.9.9 0 0 0 .101.434q.099.175.258.3.166.116.359.175.209.062.426.059h1.051v1.294h-6.518v-1.336h.309a2.3 2.3 0 0 0 .601-.075c.2-.045.388-.134.55-.259q.27-.239.451-.551.25-.442.434-.918l5.425-14.723h3.439l5.234 14.748q.15.437.383.835.174.314.443.551c.145.131.315.231.501.292.183.057.375.085.567.083h.451v1.353h-8.263v-1.336h.951q.193.001.376-.058a1 1 0 0 0 .35-.167.9.9 0 0 0 .351-.743 2.2 2.2 0 0 0-.075-.584q-.075-.278-.15-.493l-.835-2.504zm4.265-5.634a21 21 0 0 1-.275-.901c-.1-.309-.192-.635-.284-.96a32 32 0 0 1-.492-1.895c-.075.25-.159.534-.259.835l-.309.926c-.117.317-.225.635-.334.952-.108.317-.217.626-.308.918l-1.486 4.232h5.066zm9.824 11.477v-1.336h1.052q.262.005.517-.058a.74.74 0 0 0 .401-.226c.131-.135.226-.302.276-.484q.098-.411.091-.834v-11.944a3.4 3.4 0 0 0-.091-.835 1.2 1.2 0 0 0-.276-.492.83.83 0 0 0-.401-.226 2.6 2.6 0 0 0-.517-.05h-1.052v-1.335h8.647v1.335h-1.051a2.5 2.5 0 0 0-.51.05.94.94 0 0 0-.408.226 1.3 1.3 0 0 0-.268.492 3 3 0 0 0-.1.835v11.952q-.008.423.1.835c.051.179.142.345.268.484.112.112.254.19.408.225q.251.062.51.058h1.051v1.328zm10.041 0v-1.336h1.052q.262.005.517-.058a.84.84 0 0 0 .401-.226 1.1 1.1 0 0 0 .267-.484 3 3 0 0 0 .1-.834v-11.961a2.9 2.9 0 0 0-.1-.835 1.16 1.16 0 0 0-.267-.492.84.84 0 0 0-.401-.225 2.4 2.4 0 0 0-.517-.059h-1.052v-1.335h8.647v1.318h-1.051a2.6 2.6 0 0 0-.501.059.83.83 0 0 0-.409.217 1.2 1.2 0 0 0-.276.451c-.078.27-.112.552-.1.834v13.505h4.658a1.74 1.74 0 0 0 1.368-.559 3.43 3.43 0 0 0 .71-1.62l.4-1.886h1.411l-.184 5.592zm29.564-17.67 3.455 9.557c.15.392.284.834.409 1.193s.242.785.351 1.152.2.71.283 1.018c.084.309.142.576.184.835.058-.3.134-.634.209-1.002.075-.367.15-.751.233-1.151.084-.401.176-.835.267-1.244s.192-.835.293-1.235l1.318-5.401c0-.1.05-.217.084-.342l.075-.392c0-.125.042-.242.058-.351.017-.108 0-.2 0-.267a1.05 1.05 0 0 0-.384-.909 2.13 2.13 0 0 0-1.218-.276h-.576v-1.36h6.527v1.318h-.476a2.5 2.5 0 0 0-.643.076 1.1 1.1 0 0 0-.509.292 2 2 0 0 0-.392.592 7 7 0 0 0-.35 1.002l-3.882 14.565h-2.812l-4.174-11.752-3.672 11.752h-3.105l-4.582-15.225a2.6 2.6 0 0 0-.276-.651 1.5 1.5 0 0 0-.367-.409 1.4 1.4 0 0 0-.492-.208 3 3 0 0 0-.643-.067h-.326v-1.285h8.347v1.318h-.576c-.4-.028-.799.074-1.135.293a1.1 1.1 0 0 0-.367.918q.01.308.075.609.068.372.175.734l1.669 5.785c.092.317.184.667.284 1.035q.152.55.292 1.126c.092.384.167.743.242 1.094.075.35.125.659.159.926q.176-.799.375-1.511l.418-1.435 3.338-10.717zm15.524 11.827-.718 2.153a10 10 0 0 0-.2.718q-.096.349-.108.71c-.004.15.031.3.1.434q.099.175.258.3.166.116.359.175.208.062.426.059h1.052v1.294h-6.519v-1.336h.301q.309.003.609-.075c.19-.055.366-.149.517-.275q.267-.243.451-.551a7 7 0 0 0 .434-.918l5.425-14.724h3.439l5.233 14.749q.15.436.384.834.173.31.434.551c.149.13.322.229.509.292q.278.087.568.084h.451v1.369h-8.263v-1.336h.976q.193.001.376-.058a1 1 0 0 0 .35-.167.9.9 0 0 0 .251-.301.9.9 0 0 0 .1-.442 2.3 2.3 0 0 0-.075-.584q-.075-.278-.15-.493l-.877-2.504zm4.274-5.634a19 19 0 0 1-.276-.901c-.1-.309-.192-.635-.284-.96-.091-.326-.183-.651-.267-.968a32 32 0 0 1-.225-.927c-.075.25-.159.534-.259.835s-.2.609-.309.926-.225.635-.333.952-.217.626-.309.918l-1.486 4.232h5.066zm11.493 11.477v-1.336h1.168q.284.021.568 0a.95.95 0 0 0 .459-.192c.144-.122.254-.281.317-.459.086-.27.125-.552.117-.835v-3.48l-4.641-8.889a7 7 0 0 0-.342-.626 1.6 1.6 0 0 0-.367-.409 1.3 1.3 0 0 0-.443-.225 2.2 2.2 0 0 0-.617-.076h-.334v-1.318h8.388v1.318h-.425c-.4-.028-.798.081-1.127.309a1 1 0 0 0-.376.835c.002.236.041.47.117.693q.11.353.259.692l1.861 3.681c.259.526.476.993.643 1.402s.317.835.459 1.202c.167-.442.367-.926.592-1.444.226-.517.476-1.051.752-1.619l1.452-2.996c.157-.289.275-.598.35-.918q.067-.289.084-.585a1.1 1.1 0 0 0-.417-.943 2.14 2.14 0 0 0-1.236-.292h-.576v-1.335h6.552v1.318h-.475a1.5 1.5 0 0 0-.543.092c-.164.064-.31.167-.426.301a3 3 0 0 0-.417.601c-.142.25-.317.576-.509.968l-4.257 8.288v3.422q-.007.425.109.835c.058.177.161.335.3.459a.84.84 0 0 0 .443.2q.271.02.542 0h1.235v1.361zm-161.956 19.088a1.15 1.15 0 0 0 .409.835q.47.435 1.018.768c.4.258.834.525 1.327.834q.717.412 1.335.96c.403.352.747.766 1.019 1.227.279.493.42 1.053.409 1.619v2.688a3.18 3.18 0 0 1-1.286 2.654c-.409.298-.87.516-1.36.643a6.5 6.5 0 0 1-3.272 0 3.9 3.9 0 0 1-1.344-.643 3.1 3.1 0 0 1-.91-1.102 3.35 3.35 0 0 1-.342-1.552v-2.229h1.452a1.14 1.14 0 0 1 .944.384c.215.26.327.59.317.927v1.168a.78.78 0 0 0 .459.651 2.04 2.04 0 0 0 1.669.192q.267-.084.493-.25a1.2 1.2 0 0 0 .325-.326.56.56 0 0 0 .117-.333v-2.504a1.93 1.93 0 0 0-.409-1.269 4 4 0 0 0-1.027-.893 12 12 0 0 0-1.335-.735 7 7 0 0 1-1.327-.834 4.2 4.2 0 0 1-1.027-1.219 3.6 3.6 0 0 1-.409-1.811v-1.728a3.9 3.9 0 0 1 .309-1.602c.186-.427.473-.802.835-1.094.37-.299.8-.515 1.26-.634a6 6 0 0 1 1.586-.2 5.5 5.5 0 0 1 1.602.225c.465.137.901.357 1.286.651.362.295.648.673.834 1.102.213.489.319 1.019.309 1.552v2.195h-1.385a1.26 1.26 0 0 1-.977-.467 1.53 1.53 0 0 1-.4-1.027v-.726a.84.84 0 0 0-.418-.759 1.7 1.7 0 0 0-.893-.268 1.33 1.33 0 0 0-.835.284.78.78 0 0 0-.358.626zm16.317-5.242v.543c.005.247-.035.493-.117.726a1 1 0 0 1-.3.468.8.8 0 0 0-.151.183.7.7 0 0 0-.083.301v11.902a3.6 3.6 0 0 1-.317 1.552 2.9 2.9 0 0 1-.835 1.094c-.389.3-.834.519-1.31.642a6 6 0 0 1-1.611.217 6 6 0 0 1-1.669-.217 3.8 3.8 0 0 1-1.344-.642 3.16 3.16 0 0 1-.91-1.094 3.34 3.34 0 0 1-.342-1.552v-11.877a.56.56 0 0 0-.067-.317.8.8 0 0 0-.167-.176 1.25 1.25 0 0 1-.367-.384 1.2 1.2 0 0 1-.192-.709v-.66h4.282v.543c.001.253-.059.502-.176.726a1.5 1.5 0 0 1-.367.468 1 1 0 0 0-.15.183.7.7 0 0 0-.084.301v11.526a1.58 1.58 0 0 0 .434 1.261c.303.254.69.388 1.086.375.393.01.775-.13 1.068-.392a1.6 1.6 0 0 0 .426-1.244v-11.501a.63.63 0 0 0-.076-.334.9.9 0 0 0-.2-.226 1.06 1.06 0 0 1-.35-.417 1.6 1.6 0 0 1-.167-.751v-.518zm6.585 0a2.7 2.7 0 0 1 1.461.384c.385.25.707.584.943.977.232.382.401.799.501 1.235.103.398.156.808.159 1.219v2.988a3.8 3.8 0 0 1-.96 2.738 4.02 4.02 0 0 1-2.972.976h-1.093c-.225 0-.334.1-.334.309v4.115a.55.55 0 0 0 .075.325.7.7 0 0 0 .159.159q.216.173.375.401c.132.191.199.419.192.651v1.009h-4.323v-1.009a1.1 1.1 0 0 1 .184-.651 2 2 0 0 1 .375-.401q.081-.06.15-.134a.5.5 0 0 0 .084-.233v-12.645a.8.8 0 0 0 0-.251.3.3 0 0 0-.134-.1.9.9 0 0 1-.35-.409 2 2 0 0 1-.117-.759v-.894zm.326 4.074a2.5 2.5 0 0 0-.3-1.311 1.14 1.14 0 0 0-1.035-.492h-.91a.33.33 0 0 0-.292.125.55.55 0 0 0-.084.275v5.275c0 .226.109.334.309.334h.977a1.13 1.13 0 0 0 1.035-.492c.217-.401.321-.855.3-1.311zm9.582-4.074c.513-.013 1.02.12 1.46.384.385.25.708.584.944.977.232.382.401.799.5 1.235.103.398.156.808.159 1.219v2.988a3.77 3.77 0 0 1-.96 2.738 4.02 4.02 0 0 1-2.971.976h-1.094c-.217 0-.325.1-.325.309v4.115a.56.56 0 0 0 .067.325.6.6 0 0 0 .167.159q.207.177.367.401a1.1 1.1 0 0 1 .192.651v1.009h-4.324v-1.009a1.1 1.1 0 0 1 .184-.651q.16-.228.376-.401.08-.06.15-.134a.47.47 0 0 0 .083-.233v-12.645a.6.6 0 0 0 0-.251.3.3 0 0 0-.133-.1.94.94 0 0 1-.351-.409 2 2 0 0 1-.117-.759v-.894zm.325 4.074a2.5 2.5 0 0 0-.3-1.311 1.1 1.1 0 0 0-.447-.385 1.1 1.1 0 0 0-.58-.107h-.918a.33.33 0 0 0-.292.125.55.55 0 0 0-.075.275v5.275c0 .226.1.334.3.334h.985c.2.017.4-.02.58-.107.181-.086.335-.219.447-.385.218-.401.322-.855.3-1.311zm12.228 10.049v2.754a.56.56 0 0 1-.192.443.58.58 0 0 1-.376.166h-7.895v-.984a1.8 1.8 0 0 1 .142-.785.83.83 0 0 1 .367-.384.5.5 0 0 0 .217-.167.44.44 0 0 0 .092-.275v-12.362a.6.6 0 0 0-.067-.308 1 1 0 0 0-.167-.159 1.8 1.8 0 0 1-.376-.401 1.07 1.07 0 0 1-.183-.651v-1.01h4.323v1.01c.008.232-.059.461-.192.651q-.156.23-.375.401a.54.54 0 0 0-.176.159.8.8 0 0 0-.05.334v12.428a.29.29 0 0 0 .193.315.3.3 0 0 0 .133.01h1.844a.54.54 0 0 0 .493-.3 2.8 2.8 0 0 1 .392-.56.99.99 0 0 1 .793-.325zm4.457.818a.74.74 0 0 0 .059.325q.074.105.175.184.219.17.375.401c.132.19.196.419.184.651v.984H216v-.984a1.05 1.05 0 0 1 .183-.651 1.8 1.8 0 0 1 .376-.401 1.4 1.4 0 0 0 .15-.184.7.7 0 0 0 .084-.283v-12.412a.55.55 0 0 0-.075-.325 1.5 1.5 0 0 0-.159-.184 1.8 1.8 0 0 1-.376-.401 1.07 1.07 0 0 1-.183-.651v-1.01h4.34v1.01c.011.232-.054.46-.184.651q-.156.23-.375.401a1 1 0 0 0-.175.184.74.74 0 0 0-.059.325zm5.217-12.562a.3.3 0 0 0-.072.099.3.3 0 0 0-.028.118v4.424a.29.29 0 0 0 .082.252.29.29 0 0 0 .251.082h2.705a.5.5 0 0 1 .25.075.3.3 0 0 1 .125.267v1.669c0 .226-.117.334-.35.334h-2.73a.3.3 0 0 0-.248.08.3.3 0 0 0-.071.113.3.3 0 0 0-.014.133v4.958a.3.3 0 0 0 .116.25.38.38 0 0 0 .234.1h2.037c.158 0 .258-.1.3-.284a1.02 1.02 0 0 1 .459-.701c.272-.134.574-.197.877-.183h.834v2.779a.55.55 0 0 1-.175.417.6.6 0 0 1-.434.167h-7.754v-.935a1.9 1.9 0 0 1 .125-.784.77.77 0 0 1 .359-.384.47.47 0 0 0 .217-.192.56.56 0 0 0 .092-.301v-12.269a.56.56 0 0 0-.326-.534.84.84 0 0 1-.342-.367 1.6 1.6 0 0 1-.125-.71v-1.01h7.612a.83.83 0 0 1 .509.201.54.54 0 0 1 .242.383v2.646h-.91a1.2 1.2 0 0 1-.767-.233 1.7 1.7 0 0 1-.401-.443.47.47 0 0 0-.493-.284h-1.936a.25.25 0 0 0-.25.067m14.932 12.887c.132.086.243.2.325.334.103.192.152.408.142.626v1.26h-2.27a1.09 1.09 0 0 1-.91-.375 1.37 1.37 0 0 1-.3-.885v-5.191a1.53 1.53 0 0 0-.276-1.002 1.2 1.2 0 0 0-.993-.334h-.96c-.2 0-.309.109-.309.334v4.908a.74.74 0 0 0 .059.325q.07.099.175.159.216.173.375.401c.132.191.199.419.192.651v1.009h-4.323v-1.009a1.1 1.1 0 0 1 .184-.651 2 2 0 0 1 .375-.401.7.7 0 0 0 .159-.159.5.5 0 0 0 .075-.309v-12.686a.18.18 0 0 0-.117-.167 2 2 0 0 1-.409-.367 1.08 1.08 0 0 1-.225-.727v-1.01h4.932a4.2 4.2 0 0 1 1.578.293 3.7 3.7 0 0 1 1.219.834c.34.35.601.768.767 1.227.182.506.273 1.04.268 1.578v2.145c.007.464-.064.927-.209 1.369a2.3 2.3 0 0 1-.676 1.018c-.192.158-.184.317 0 .467.358.272.607.663.701 1.102q.168.772.159 1.561v3.205c-.01.112.02.224.083.317a.8.8 0 0 0 .209.15m-2.947-11.526a1.34 1.34 0 0 0-.369-1.052 1.35 1.35 0 0 0-1.033-.417h-.893c-.184 0-.284.108-.284.325v4.608a.35.35 0 0 0 .084.258q.077.061.175.067h1.194c.484 0 .834-.125.943-.384.169-.339.246-.715.225-1.093zm7.504 1.502a1.15 1.15 0 0 0 .409.835q.47.435 1.018.768c.401.258.835.525 1.327.834q.717.412 1.336.96c.402.352.746.766 1.018 1.227.279.493.421 1.053.409 1.619v2.688a3.2 3.2 0 0 1-.316 1.485 3.2 3.2 0 0 1-.969 1.169 4 4 0 0 1-1.361.643 6.5 6.5 0 0 1-3.272 0 3.9 3.9 0 0 1-1.344-.643 3.2 3.2 0 0 1-.909-1.102 3.34 3.34 0 0 1-.343-1.552v-2.229h1.453a1.14 1.14 0 0 1 .943.384c.215.26.328.59.317.927v1.168a.78.78 0 0 0 .459.651 2.04 2.04 0 0 0 1.669.192q.267-.084.493-.25a1.2 1.2 0 0 0 .325-.326.56.56 0 0 0 .117-.333v-2.504a1.93 1.93 0 0 0-.409-1.269 4 4 0 0 0-1.026-.893 14 14 0 0 0-1.336-.735 7.2 7.2 0 0 1-1.327-.834 4.2 4.2 0 0 1-1.027-1.219 3.6 3.6 0 0 1-.409-1.811v-1.728a3.9 3.9 0 0 1 .309-1.602c.187-.427.473-.802.835-1.094a3.4 3.4 0 0 1 1.26-.634 6 6 0 0 1 1.586-.2 5.5 5.5 0 0 1 1.603.225c.464.137.9.357 1.285.651.362.295.648.673.835 1.102.216.488.322 1.018.309 1.552v2.195h-1.386a1.26 1.26 0 0 1-.977-.467 1.54 1.54 0 0 1-.4-1.027v-.726a.84.84 0 0 0-.418-.759 1.7 1.7 0 0 0-.893-.268 1.33 1.33 0 0 0-.834.284.8.8 0 0 0-.257.269.8.8 0 0 0-.102.357zm9.507 9.907v2.379q.029.334 0 .668c-.031.175-.09.345-.176.501a2.4 2.4 0 0 1-.35.484l-.576.592q-.209.184-.276.151a1.4 1.4 0 0 1-.233-.151c-.109-.091-.159-.167-.159-.225a.9.9 0 0 1 .25-.309c.206-.198.373-.433.493-.693a1.03 1.03 0 0 0 .092-.584.7.7 0 0 0-.226-.392.63.63 0 0 0-.45-.159 2.6 2.6 0 0 1-.76-.075.3.3 0 0 1-.178-.104.3.3 0 0 1-.064-.196v-1.87c0-.133.117-.234.351-.275q.413-.08.834-.075.492 0 .977.083c.342.084.451.159.451.25m6.952.702a.4.4 0 0 0 0 .208l.117.117q.14.112.242.259a.72.72 0 0 1 .117.417v.634h-2.796v-.634a.67.67 0 0 1 .125-.417q.099-.15.242-.259.05-.056.092-.117a.6.6 0 0 0 .058-.183v-7.98a.33.33 0 0 0-.05-.208 1 1 0 0 0-.1-.117 1 1 0 0 1-.242-.259.67.67 0 0 1-.125-.417v-.651h2.796v.651a.73.73 0 0 1-.117.417 1.2 1.2 0 0 1-.242.259 1 1 0 0 0-.117.117.4.4 0 0 0 0 .208zm7.061.233a.9.9 0 0 1 .184.259c.056.143.082.297.075.451v.692h-1.494a.6.6 0 0 1-.298-.088.6.6 0 0 1-.219-.22 1.3 1.3 0 0 1-.201-.701v-3.923a1.47 1.47 0 0 0-.183-.835.76.76 0 0 0-.701-.284 1.1 1.1 0 0 0-.359.05 1.14 1.14 0 0 0-.409.309v3.956a.4.4 0 0 0 .041.209.4.4 0 0 0 .126.1q.132.116.233.259a.8.8 0 0 1 .109.451v.692h-2.788v-.709a.8.8 0 0 1 .109-.451.8.8 0 0 1 .233-.242.4.4 0 0 0 .109-.1.4.4 0 0 0 .058-.2v-3.731a.9.9 0 0 0-.058-.417.35.35 0 0 0-.125-.142 1.1 1.1 0 0 1-.226-.251.77.77 0 0 1-.1-.425v-.835h1.995a.26.26 0 0 1 .175.05.6.6 0 0 1 .084.117q.012.075 0 .15.175-.117.375-.184.212-.083.434-.133.285-.063.576-.059c.324-.01.647.053.943.184.254.12.475.301.643.526.173.252.294.536.359.835q.114.52.108 1.051v3.289a.3.3 0 0 0 .051.2.27.27 0 0 0 .141.1m4.482-3.489a.83.83 0 0 1-.2-.55.47.47 0 0 0-.242-.46.94.94 0 0 0-.434-.125.8.8 0 0 0-.217 0 .8.8 0 0 0-.242.092.53.53 0 0 0-.259.476v3.213a.84.84 0 0 0 .067.384.58.58 0 0 0 .409.334h.242c.166-.004.329-.047.476-.125a.43.43 0 0 0 .242-.401v-.067a.88.88 0 0 1 .209-.592.73.73 0 0 1 .609-.251h.926v.843c.004.304-.056.606-.175.885-.12.266-.297.502-.517.693a2.4 2.4 0 0 1-.777.442c-.32.106-.655.16-.993.159a2.62 2.62 0 0 1-1.811-.626 2.27 2.27 0 0 1-.701-1.778v-2.829a2.28 2.28 0 0 1 .701-1.787 2.62 2.62 0 0 1 1.811-.626 2.8 2.8 0 0 1 1.002.176c.285.114.548.278.776.484.212.194.384.426.509.684.115.246.175.514.175.785v.834h-.993a.78.78 0 0 1-.593-.267m4.274 3.406v1.243c0 .084-.084.142-.267.184a2.4 2.4 0 0 1-.634.067 3.7 3.7 0 0 1-.635-.05c-.183 0-.275-.092-.275-.167v-1.252c0-.092.092-.15.284-.184q.31-.062.626-.058.32-.003.634.067c.183.033.267.083.267.15m70.32-57.491H81.996a1.954 1.954 0 0 0-1.953 1.953 1.956 1.956 0 0 0 1.953 1.945H346.85a1.956 1.956 0 0 0 1.953-1.945 1.954 1.954 0 0 0-1.953-1.953m0 33.102H81.996a1.955 1.955 0 0 0-1.953 1.945 1.95 1.95 0 0 0 1.953 1.953H346.85a1.955 1.955 0 0 0 1.953-1.953 1.956 1.956 0 0 0-1.953-1.945M157.833 58.957c.067.009.033.009 0 0"/><path d="M88.865 61.17a1.067 1.067 0 0 0 .668 1.769c1.577.242 3.155.45 4.732.65 2.646.335 5.275.71 7.929 1.002 1.945.217 3.857.676 5.843.935 3.088.4 6.168.943 9.248 1.41 3.94.585 7.879 1.177 11.827 1.67 3.339.442 6.719.977 10.083 1.486 2.212.334 4.415.659 6.627 1.026 2.212.368 4.641.835 6.961 1.227 2.078.36 4.173.685 6.251 1.069s4.015.834 6.035 1.185c4.173.718 8.246 1.56 12.361 2.353 3.105.593 6.185 1.27 9.282 1.879 1.861.375 3.739.667 5.6 1.06 1.861.392 3.723.592 5.567 1.018 2.296.526 4.624.91 6.936 1.394q5.35 1.117 10.684 2.295c1.227.267 2.504.359 3.697.71 1.92.55 3.881.834 5.843 1.268 4.123.902 8.271 1.736 12.386 2.704 1.845.434 3.689.885 5.534 1.31s3.531.777 5.292 1.194l11.084 2.646c2.504.601 5.083 1.144 7.595 1.811 1.92.518 3.84 1.044 5.726 1.67s3.597 1.018 5.392 1.527c3.063.835 6.134 1.736 9.181 2.671 1.669.501 3.263.968 4.899 1.452h2.421c-1.269-.367-2.546-.734-3.806-1.143-2.88-.943-5.843-1.72-8.706-2.654-1.544-.501-3.146-.835-4.699-1.252s-3.013-1.019-4.574-1.37a101 101 0 0 1-5.416-1.385c-1.979-.567-3.973-1.043-5.968-1.527-3.122-.768-6.26-1.478-9.39-2.212l-11.685-2.763a13 13 0 0 1-2.571-.676 27.5 27.5 0 0 1-3.597-.734c-3.389-.701-6.761-1.478-10.15-2.187-2.095-.434-4.223-.726-6.31-1.202-1.669-.367-3.297-.651-4.924-1.118-1.085-.31-2.212-.476-3.339-.71a.94.94 0 0 1-.676-.292c.927.167 1.761.292 2.588.467 2.754.593 5.508 1.152 8.288 1.62 1.419.242 2.812.609 4.215.918.125 0 .233.075.359.092 2.854.217 5.558 1.185 8.346 1.744 1.352.267 2.688.576 4.04.835.427.055.827.242 1.143.534.668.125 1.336 0 2.012.175 2.37.601 4.749 1.202 7.144 1.67 2.947.592 5.843 1.301 8.781 1.994 3.222.751 6.469 1.436 9.665 2.287 2.596.693 5.25 1.052 7.846 1.761 4.073 1.119 8.088 2.438 12.236 3.339 2.17.384 4.31.925 6.402 1.619 1.669.609 3.38 1.077 5.066 1.619l1.67.535h23.37a2.7 2.7 0 0 0-2.128-.284.92.92 0 0 1-.618-.15 37 37 0 0 0-3.948-1.494c-1.536-.601-3.18-.902-4.774-1.353-1.227-.342-2.446-.717-3.806-1.126.909-.067 1.669-.15 2.437-.184 2.128-.083 4.265-.159 6.402-.209a5.1 5.1 0 0 1 1.552-.125 1.1 1.1 0 0 0 1.194-.484 23 23 0 0 0 2.504-3.422c.626-1.152 1.343-2.287 1.21-3.698-.05-.837-.005-1.677.133-2.504a2.38 2.38 0 0 1 .727-1.535c.208-.192.425-.393.283-.71a.67.67 0 0 0-.776-.359c-.426 0-.834.126-1.268.159s-.668-.159-.693-.634a1 1 0 0 1 .317-.743 4.4 4.4 0 0 1 1.152-.902 2.07 2.07 0 0 0 1.168-2.011v-7.512a2.9 2.9 0 0 0-.225-1.252 55 55 0 0 0-2.754-6.01 4.4 4.4 0 0 1-.568-2.27c0-2.203 0-4.407-.042-6.61-.05-1.377-.067-2.746-.1-4.123.029-.183.009-.37-.058-.543a16 16 0 0 0-1.336-2.27c-.976-1.052-1.811-2.229-2.704-3.339a3.34 3.34 0 0 1-.701-1.945c-.134-1.986-.342-3.964-.401-5.959-.042-1.578-.292-1.811-1.886-1.995a2.44 2.44 0 0 1-1.244-.5 29 29 0 0 1-2.554-2.388 1 1 0 0 1-.417-.534c-.125-.684-.568-.835-1.202-.835-3.89 0-7.721.176-11.585.192h-2.946c-5.484.084-10.968 0-16.451.159-3.765.125-7.512 0-11.293.133-1.561.05-3.13 0-4.691.092a2.8 2.8 0 0 1-1.361-.142 2.6 2.6 0 0 0-1.619-.175q-1.094.136-2.195.109h-2.212c-.242 0-.584-.05-.684.167-.326.768-.977.617-1.561.6-2.729-.058-5.45-.066-8.18-.15-3.922-.117-7.845-.066-11.76-.242h-.643a60 60 0 0 0-8.421-.4c-3.982.125-7.963.15-11.944.208-3.981.059-8.021.125-12.036.175-.392 0-.693.059-.617.543s-.134.484-.526.468c-2.387-.109-4.775-.193-7.162-.284a4.5 4.5 0 0 0-.834.091c-1.261.184-2.504.593-3.806.284a10 10 0 0 0-2.271-.158h-6.794c-.425 0-.834.066-1.093-.46-.109-.241-.401-.258-.651-.266-1.035 0-2.07-.176-3.113-.167a21.5 21.5 0 0 1-3.948-.142 1.19 1.19 0 0 0-1.11.325.84.84 0 0 1-.743.2 166 166 0 0 0-5.2-.2h-4.048a1.14 1.14 0 0 1-.793-.158 1.97 1.97 0 0 0-1.436-.401h-6.986c-.768 0-1.527 0-2.287-.058-1.277-.109-2.562-.343-3.781.283a.6.6 0 0 1-.267.067c-2.05.096-4.104.071-6.151-.075-1.185-.134-2.387-.017-3.572-.2a1.43 1.43 0 0 0-.835.117.35.35 0 0 1-.459-.117c-.267-.476-.776-.418-1.235-.418-1.403.109-2.805.226-4.224.2a8.7 8.7 0 0 0-1.486.042c-2.036.276-4.089.334-6.134.46-2.621.158-5.259.325-7.888.383-1.961.05-3.906.318-5.842.21a1.23 1.23 0 0 0-1.194.375c-.234.359-.459.317-.768.2a7.4 7.4 0 0 0-3.071-.367c-2.045.15-4.09.267-6.135.409q-.644.05-1.277.175c-.142 0-.292.117-.25.309a.27.27 0 0 0 .275.209c.24.037.486.037.726 0a10.7 10.7 0 0 1 1.928-.1c1.252 0 2.504 0 3.764-.11.768-.058 1.528-.05 2.296-.066.409 0 .576.109.55.593-.133 2.629-.2 5.258-.442 7.879-.192 2.011-.217 4.04-.425 6.043-.167 1.56 0 1.669-1.745 1.577-2.17-.125-4.332-.334-6.502-.5-.267 0-.626-.084-.7.25a.75.75 0 0 0 .467.834q.264.084.542.076l1.903.233q-.77.282-1.494.668a.284.284 0 0 0-.133.384.3.3 0 0 0 .317.15q.266-.062.525-.15a2.4 2.4 0 0 1 1.361-.184 5.8 5.8 0 0 0 .134 1.72c.116.4 0 .584-.46.55-.7-.066-1.402-.141-2.103-.166-.267 0-.726-.234-.76.2-.033.434.426.359.727.4h.183c1.67-.15 3.339.376 5.008.468 2.688.159 5.359.55 8.038.835 3.464.375 6.936.76 10.408 1.127 2.83.3 5.659.592 8.489.834 2.345.226 4.699.4 7.044.618.885.083 1.761.208 2.638.359a1.173 1.173 0 0 1 .918 1.252c-.05.492-.201.576-1.052.55a2 2 0 0 1-.367 0c-1.452-.242-2.921-.133-4.39-.35-2.63-.376-5.284-.593-7.913-.977-2.429-.358-4.866-.567-7.295-.834s-5.108-.551-7.645-.952c-2.087-.334-4.174-.434-6.302-.718-2.662-.4-5.35-.642-8.03-.893a4 4 0 0 0-.642 0 .434.434 0 0 0-.417.418.47.47 0 0 0 .325.492c.643.3.768.518.626 1.135a3.2 3.2 0 0 1-.726 1.227m46.565 1.669c-.141.141-.342 0-.4-.21a.83.83 0 0 1 .534-1.018c.184-.066.334-.091.476.1q.236.274.509.51.07.145.117.3c-.468.084-.902-.008-1.236.334zm2.905 5.007a.91.91 0 0 1-.951-.116.441.441 0 0 1 .05-.768c.45-.276.467-.601.267-1.085a8.6 8.6 0 0 1-.376-1.486h.092q.486 1.026.985 2.053c.133.257.191.546.167.835-.009.2.05.492-.234.634zm2.638.484c-.276.076-.351-.191-.409-.392-.059-.2-.134-.592-.192-.893a1.86 1.86 0 0 0-.718-1.302 2.74 2.74 0 0 1-.768-1.168c-.326-.835-.584-1.72-.835-2.596-.167-.576.05-.835.66-.893a.2.2 0 0 1 .091 0c.434.192.902 0 1.461.117-.309.575-.484 1.118-1.085 1.385-.359.15-.326.526 0 .56.559 0 .618.341.634.776a1.1 1.1 0 0 0 .368.835 2.68 2.68 0 0 1 .793 1.952c0 .393.066.785.108 1.186.008.175.125.4-.108.467zm2.303-1.953c-.175.218-.234.243-.451 0-.217-.242-.567-.166-.609.25a5.1 5.1 0 0 0-.05 1.553.42.42 0 0 1-.1.476 2.3 2.3 0 0 1-.317-1.57v-1.284a2.14 2.14 0 0 0-.776-1.553.7.7 0 0 1-.201-.175c-.15-.267-.35-.576-.117-.835a.51.51 0 0 1 .735-.092c.384.276.651-.25 1.035-.142s.601-.183.668-.609c.383.635.367.776-.167 1.144-.234.167-.443.308-.451.634-.008.325-.059.776.267 1.018s.76.109 1.152.167c.234 0 .275-.292.284-.5v-2.755c0-1.002 0-1.01.993-1.027a1.04 1.04 0 0 0 .526-.125c.35-.2.651-.267.926.167a.88.88 0 0 0 .743.292c1.343.01 2.68.184 3.981.518.718.2 1.511.05 2.271.2.759.15 1.402.15 2.095.217.692.067.659.067.651.835 0 1.093-.184 2.187-.117 3.288.05.777-.05.835-.835.743q-1.817-.263-3.622-.55c-1.845-.285-3.681-.585-5.526-.877a1.4 1.4 0 0 1-.183 0 2.264 2.264 0 0 0-2.805.626zm-1.452-5.842c0-.51.451-.309.709-.3.543 0 1.027.5.96.9 0 .218-.442.385-.834.351a.89.89 0 0 1-.852-.893zm3.247-2.187c.066-.576.175-.676.884-.676.267-.005.531.046.777.15.409.192.325.56.275.877s-.325.334-.576.309a6 6 0 0 1-.634-.117c-.317-.017-.801.142-.726-.484zm3.614-7.345c0-.626.05-.701.626-.726s.951.15.976.684c0 .334-.092.677-.075 1.002s-.2 1.052.334 1.068c.392 0 .25-.659.292-1.035s.067-.726.109-1.093a.45.45 0 0 1 .446-.39.45.45 0 0 1 .447.39v1.56a3.7 3.7 0 0 0 .083 1.094c0 .109.1.242.251.209a.24.24 0 0 0 .2-.259c0-.734.075-1.469.108-2.203.034-.735.151-.885.935-.835 1.11.075 1.336.225 1.319 1.285 0 1.77-.167 3.54-.25 5.317 0 .309-.159.442-.459.426l-.276-.042c-1.369-.175-1.369-.167-1.477-1.552a.56.56 0 0 0-.276-.526c-.309.308-.133.66-.175.985-.083.559-.309.834-.693.792s-.592-.358-.584-.96c0-.342.267-.634.142-.984-.042-.109-.1-.217-.167-.376a.65.65 0 0 0-.342.61q.025.416 0 .834c-.075.584-.342.776-.952.718s-.634-.175-.617-.835c0-1.31 0-2.629.125-3.94q.006-.58-.05-1.16zm5.725 8.23c0 .35-.292.434-.592.434h-.568a4 4 0 0 1-.526-.059c-.392-.091-.417-.4-.4-.726s.225-.4.501-.417a4.4 4.4 0 0 1 1.085.125c.367.084.542.267.5.643m-5.458-1.177c.592 0 1.102.075 1.31.776a.5.5 0 0 0 .359-.284c.192-.358.501-.325.785-.175.283.15.25.468.208.743a.43.43 0 0 1-.24.323.44.44 0 0 1-.402-.006 11.6 11.6 0 0 0-2.488-.175c-.642-.092-.834-.342-.834-.876 0-.26.133-.393.409-.368q.444.057.893.042m6.285 1.194c0-.293.05-.56.425-.568a.684.684 0 0 1 .752.55c-.084.251 0 .61-.476.635s-.701-.167-.701-.617m3.48 12.002c-.125.192-.325.075-.509.05-3.464-.576-6.944-1.018-10.375-1.786a2.3 2.3 0 0 0-1.001-.075 3.7 3.7 0 0 1-2.028-.343c-.56-.166-.668-.45-.551-.984.359.242.651.467.968.642.467.259.768.059.759-.467a2 2 0 0 0-.225-.693c-.075-.2-.158-.4-.217-.61-.159-.567-.067-.667.509-.584.726.117 1.444.25 2.17.351 2.204.326 4.416.634 6.619.952.301.05.601.108.902.15a1.92 1.92 0 0 1 1.435 1.01 6.4 6.4 0 0 0 1.377 1.82.434.434 0 0 1 .167.568m.301-11.51c-.042.359-.267.434-.585.367s-.484-.05-.726-.083c-.5-.059-.659-.25-.617-.693.041-.442.4-.434.743-.384s.525 0 .726.059c.459.058.5.383.459.742zm-.401-1.753a5.4 5.4 0 0 1-.734-.058c-.735-.125-.835-.284-.835-1.027 0-.325.159-.876-.2-.876s-.276.55-.301.885c-.025.333 0 .642-.292.834a.76.76 0 0 1-.701-.1c-.276-.134-.259-.384-.276-.634 0-.735.067-1.461.059-2.195 0-1.16.092-2.32.142-3.481 0-.392.183-.626.634-.584.317 0 .526.15.534.492s0 .918 0 1.377v.919a.19.19 0 0 0 .184.183.22.22 0 0 0 .217-.125 1.14 1.14 0 0 0 .167-.61v-.917c0-.301-.142-.835.225-1.036a2.5 2.5 0 0 1 1.528-.041c.225 0 .233.233.267.417q.126 1.006.092 2.02v.643q0 .045.017.088a.23.23 0 0 0 .216.137.22.22 0 0 0 .159-.084.22.22 0 0 0 .042-.175c.013-.64.077-1.28.192-1.911v-.46c0-.308.141-.508.5-.525s.526.234.543.568q.018.321 0 .642c-.064.785-.045 1.574.058 2.354.359 0 .393-.209.401-.409.05-.768.175-1.52.167-2.287-.008-.768.05-.768.709-.734.484 0 1.069-.15 1.419.175s0 .876 0 1.327a23 23 0 0 1 0 4.023.496.496 0 0 0 .242.576 1.06 1.06 0 0 0 .342-.968 41 41 0 0 1 .192-4.282c0-.443.067-.701.585-.668.517.034.676.159.676.76v5.625c-.067.927-.718 1.252-1.436.66-.35-.284-.501-.159-.834-.067a4.7 4.7 0 0 1-1.895-.1c-.2 0-.267-.234-.259-.434a.69.69 0 0 0-.259-.71c-.25.126-.25.36-.275.56 0 .408-.292.492-.643.467-.35-.025-.417-.276-.4-.584.058-.332.058-.67 0-1.002-.042-.15-.109-.325-.284-.309s-.234.184-.251.342a7 7 0 0 0-.058.835.483.483 0 0 1-.576.492zm6.068 1.67c.501 0 .768.183.776.559.009.375-.225.517-.584.517s-.568-.158-.484-.559c.042-.192-.134-.51.292-.51zm.2 2.503c.443 0 .902-.133 1.261.26-.476.575-.835.709-1.344.508a.433.433 0 0 1-.309-.484c.033-.233.2-.292.392-.292zm-1.285-1.76a.27.27 0 0 1-.284.175c-.425 0-.834 0-1.268-.067a.67.67 0 0 1-.56-.41c-.2-.45-.083-.684.426-.717h.267a3.1 3.1 0 0 1 1.077.184.7.7 0 0 1 .342.834m-2.946-.535c0 .292-.092.5-.359.476-.401 0-.451-.326-.451-.651 0-.326.125-.476.426-.45.442.024.342.391.384.608zm6.627 10.325a1.89 1.89 0 0 1 0-1.953c.3.684 1.285.768 1.21 1.76-.451-.158-.893-.325-1.21.176zm1.285-3.264c-.25 0-.384-.317-.651-.267-.117 0-.259 0-.292-.142a.36.36 0 0 1 .022-.229.37.37 0 0 1 .153-.171 1.07 1.07 0 0 1 .835-.1c.15.317-.025.584-.067.893zm.367-4.799c-.225.985 0 2.003-.25 3.105a2.44 2.44 0 0 0-1.669-.4c-.426 0-.534.208-.459.592.122.41.195.833.217 1.26 0 .292-.05.568-.376.66a.67.67 0 0 1-.835-.318 2.6 2.6 0 0 1-.425-1.201l-.05-.067c-.651 0-.835-.585-1.202-.902-.568-.475-.543-.517-1.119-.075a.83.83 0 0 1-.834.075 11 11 0 0 0-1.144-.35.383.383 0 0 0-.467.2c-.092.2 0 .35.158.484q.136.126.301.209c.217.125.334.242.1.484-.367.384-.184.734.142 1.027s.651.258 1.11 0a1.67 1.67 0 0 0 .835-.902c.35.134.233.36.2.551s-.067.45.175.568.443-.05.593-.267c0-.076.133-.109.234-.176.25.242.141.518.116.776 0 .576 0 1.077.651 1.37a1.03 1.03 0 0 1 .501 1.018 6.2 6.2 0 0 0 .134 1.452c.15.576.409.951 1.043.968a.41.41 0 0 1 .417.234c-.167.259-.417.092-.626.067a4.36 4.36 0 0 1-1.669-1.394.9.9 0 0 1 0-.835c.234-.459 0-.684-.434-.835a2.3 2.3 0 0 0-.626-.108c-.392 0-.693.1-.551.584.075.259 0 .46-.125.835a3.5 3.5 0 0 1-.067-1.11 1.09 1.09 0 0 0-.35-1.077c-.242-.175-.192-.5-.276-.76-.083-.258-.183-.417-.434-.408-.25.008-.342.233-.409.442a.74.74 0 0 0 0 .442c.142.66.193 1.338.151 2.012a2 2 0 0 0 .509 1.402c-.493.1-.835 0-.785-.476a1.75 1.75 0 0 0-.517-1.327.84.84 0 0 1-.184-.776c.058-.267.1-.534.159-.835s.442-.642.208-1.026a1.93 1.93 0 0 0-1.11-.777c-.835-.283-.901-.492-.434-1.293a1.845 1.845 0 0 1 2.003-1.102q.597.05 1.194 0a1.5 1.5 0 0 0 1.11-.359c.133-.133.35-.284.484-.209.551.343 1.269.142 1.753.526.554.327 1.185.5 1.828.501.367.075.567-.225.592-.56a5.6 5.6 0 0 0 .167-1.91c0-.15 0-.343.159-.36.158-.016.208.193.183.334zm-2.595-1.945a.23.23 0 0 1 .103-.245.2.2 0 0 1 .089-.03c.317 0 .692-.125.834.309s.334.534.693.35c.509-.258.543.134.718.468l-1.436-.075a3 3 0 0 1-.459 0c-.384-.134-.501-.443-.542-.793zm7.244-3.338c-.283.509-.584 1.001-.834 1.51a.785.785 0 0 1-.927.418c-.4-.092-.359-.443-.367-.743-.049-.365 0-.737.142-1.077a24 24 0 0 1 2.103-3.656c.126.994 0 1.97.117 2.947a1.03 1.03 0 0 1-.234.542zm.727.3.142.05c-.067.418-.109.835-.201 1.244a.36.36 0 0 1-.206.287.37.37 0 0 1-.353-.02c-.217-.108-.084-.317 0-.467.192-.426.409-.785.618-1.177zm-2.504-3.439q-.173.376-.426.701a3.9 3.9 0 0 0-.776 2.12c0 .919-.718 1.561-1.119 2.33-.367-.502-.092-.944-.092-1.395 0-1.494 0-2.996.059-4.49 0-.893.175-1.06 1.068-1.102 1.394-.125 1.795.434 1.269 1.778zm-1.202 6.678c0 .484-.117.968-.192 1.535a7 7 0 0 0-.543-1.026c-.242-.25-.158-.501 0-.751.159-.25.292-.46.568-.384.275.075.167.384.15.642zm.617 12.336a.915.915 0 0 1-1.041-.317.9.9 0 0 1-.161-.35c-.141-1.153-.617-2.23-.701-3.398a1.5 1.5 0 0 1 .201-1.16.94.94 0 0 1 .734.926q.037.455 0 .91a3.12 3.12 0 0 0 .835 2.596q.18.206.3.45c.084.142 0 .26-.183.318zm-.125-2.504V68.63a1.74 1.74 0 0 0-.693-1.61 1.01 1.01 0 0 1-.409-.785q.023-1.729.284-3.44c.217.426-.05.835 0 1.286-.021.306.022.613.125.902a.36.36 0 0 0 .359.225.334.334 0 0 0 .301-.3 2 2 0 0 0 0-.368 28 28 0 0 1 .208-3.847q.038-.427.167-.835a.446.446 0 0 1 .51-.292c.258 0 .367.158.409.409.087.666.104 1.34.05 2.011 0 .835-.101 1.586-.117 2.387a2.34 2.34 0 0 1-.367 1.57 1.1 1.1 0 0 0-.129.435 1.1 1.1 0 0 0 .062.45 8.4 8.4 0 0 1 0 2.194c-.05.635-.151.752-.777 1.169zm3.606-6.252a10.3 10.3 0 0 1-.292 3.18 4.7 4.7 0 0 0-.109 1.453v2.938c-.01.336.038.672.142.993.175.509.117.576-.417.593h-.443a1.05 1.05 0 0 1-1.252-.835.6.6 0 0 0-.116-.25c-.543-.602-.593-1.127.125-1.67a1.11 1.11 0 0 0 .292-1.026c-.125-.835.192-1.67.067-2.563a.44.44 0 0 1 .125-.426c.401-.3.342-.7.334-1.151-.05-1.67 0-3.339 0-5.05 0-.4.15-.634.567-.676.418-.042.66.092.576.55q-.135 1.003-.133 2.012c0 .25 0 .526.167.693a1.32 1.32 0 0 1 .35 1.21zm2.003-11.618a6.3 6.3 0 0 1 .159 2.462c0 .835-.067 1.67-.142 2.504.052.877-.001 1.757-.159 2.62-.217-2.67.209-5.132.125-7.611zm-.159 9.315c-.075.208.134.65-.375.71-.326 0-.618-.326-.643-.744-.025-.417.117-.576.509-.576.393 0 .568.109.493.585zm-.642 7.32a4.4 4.4 0 0 1-.309-1.42c0-.141.125-.208.25-.233.327-.092.618-.281.835-.543.643-.667 1.427-.559 2.212-.534.384 0 .576.226.492.61a3.2 3.2 0 0 0-.075 1.093c0 .309.167.543.501.543s.409-.268.467-.56a5.8 5.8 0 0 0-.083-1.469 3.05 3.05 0 0 1 1.302 1.812l.376.776c.534.669.991 1.397 1.36 2.17.15.267.259.55 0 .834s-.167.501 0 .76c.136.279.156.6.058.893-.05.209-.083.442-.358.476a.494.494 0 0 1-.543-.392 9 9 0 0 0-.309-.96c-.242-.568-.492-.701-1.06-.61-.834.142-1.035.31-1.102.977q-.086.681-.083 1.369c0 .5-.175.6-.601.409a1.1 1.1 0 0 1-.567-.334c.55-.625.869-1.421.901-2.254a1.47 1.47 0 0 0-.901-1.76c-.109-.06-.251-.084-.284-.21-.201-.918-.968-.993-1.67-1.16-.358-.083-.684.017-.826-.308zm2.871-11.686a1.13 1.13 0 0 1-.092-.6c.125-.994.134-2.004.209-3.005.063 1.2.019 2.404-.134 3.597zm0 .05c0 .568 0 1.144-.042 1.712 0 1.035-.133 1.085-1.402.7a1.02 1.02 0 0 0 1.169-.918c.015-.51.099-1.015.25-1.502zm-.167 4.366a.834.834 0 0 1-.701.884c-.417 0-.543-.2-.526-.767.067-.267-.133-.71.451-.668s.751.167.751.542zm2.12-.117c.409.05.601.259.584.643 0 .575-.133.742-.684.709a7 7 0 0 1-.718-.117c-.643-.125-.759-.284-.693-.918s.192-.61.71-.484q.383.101.776.159zm-.784-2.112v-.367c.217-1.911.116-3.848.35-5.76.075-.6.15-.709.609-.684.768 0 .952.167.935.835 0 .885-.133 1.761-.15 2.646 0 1.16-.117 2.32-.167 3.48 0 .426-.184.626-.634.501a1.4 1.4 0 0 0-.368 0c-.484-.008-.626-.242-.601-.66zm5.842 18.438-8.58-1.67v-.15l8.597 1.628zm-.943-3.723c0 .568-.184 1.152.2 1.72-.834-.276-.993-.485-.692-1.244a2.5 2.5 0 0 0 0-2.446.41.41 0 0 1 0-.434c.342-.626.125-1.469.776-1.986a.67.67 0 0 0 .142-.684c-.101-.468-.426-.602-.743-.234-.317.367-.493.183-.643-.134a7 7 0 0 0-.476-1.193c-.15-.2-.325-.401-.609-.26-.284.143-.225.41-.134.644.263.512.456 1.056.576 1.619a8.2 8.2 0 0 1-1.368-2.63c-.109-.283.116-.383.35-.392h1.377c.459 0 1.094.1 1.67.192.676.1.834.317.834.969-.117 1.252-.092 2.504-.208 3.747a1.49 1.49 0 0 0 .492 1.536c-1.26-.225-1.611.058-1.594 1.202zm-2.204-12.344 1.803.267c.401.058.601.25.501.676-.042.2-.083.409-.133.676l-2.162-.309c-.226 0-.426-.108-.443-.367a1.4 1.4 0 0 1 .101-.885c.016-.117.167-.083.283-.067zm-.308-3.339c.041-1.67.133-3.339.225-5.008 0-.626.159-.71.835-.66.425 0 .834.067 1.277.126.592.092.776.25.701.835-.234 2.003 0 4.03-.251 6.042-.075.752-.075.752-.834.718-2.02-.075-2.045-.075-2.003-2.028zm3.948 5.108c-.451-.083-.518-.275-.46-.835 0-.392.234-.534.543-.484.518.067.968.092 1.419.176a.76.76 0 0 1 .492 1.118.37.37 0 0 1-.375.2 12 12 0 0 1-1.67-.15zm-.501-4.891c.092-1.602.225-3.247.225-4.9 0-.567.159-.692.735-.667s1.093.1 1.669.15c.3 0 .401.192.392.5-.1 2.288-.175 4.583-.25 6.87 0 .326-.159.45-.451.417a43 43 0 0 1-1.669-.2.715.715 0 0 1-.647-.538.7.7 0 0 1-.013-.296c.017-.451.009-.877.009-1.336m1.102 13.112a.28.28 0 0 1-.159-.191V70.55c.058-.91.125-1.828.192-2.738 0-.184 0-.409.275-.384.276.025.334.234.301.476q-.046.5-.142.993c-.142.751-.2 1.515-.175 2.279v.459c0 .15-.109.25-.292.208m.233 5.217c.743-.576.317-1.419.584-2.137.192.493.952.735.568 1.444-.2.426-.367.935-1.118.726zm.301 1.102c4.482.684 8.905 1.67 13.354 2.629-4.432-.851-8.931-1.47-13.321-2.63zm17.828 1.477a19 19 0 0 1-2.763-.4c-3.614-.643-7.22-1.353-10.85-1.979a2.8 2.8 0 0 1-2.062-1.352 2.7 2.7 0 0 1-.501-.926q1.683.16 3.339.5 2.177.352 4.298.952c.977.259 1.979.409 2.972.576.834.142 1.143-.225.901-1.052-.067-.258-.317-.45-.3-.75.275-.062.559-.062.834 0a2.36 2.36 0 0 1 2.329 1.418q.72 1.337 1.628 2.554c.075.117.217.217.175.46m-15.934-22.026c.067-1.277.117-2.354.176-3.422 0-.651.125-.727.793-.685.667.042 1.151.125 1.736.175a.458.458 0 0 1 .475.543c-.075 1.744-.116 3.489-.233 5.233a9.5 9.5 0 0 1-.075 1.369c-.109.593-.184.71-.743.668s-1.219-.134-1.828-.209a.45.45 0 0 1-.444-.369.44.44 0 0 1 .01-.207c.208-1.102.042-2.203.133-3.096m3.664 1.318c-.1-1.252.293-2.762.201-4.29a.83.83 0 0 1 .183-.6.6.6 0 0 1 .585-.176.41.41 0 0 1 .365.281.4.4 0 0 1 .019.161q.061.96 0 1.92a35 35 0 0 0-.159 3.94q.006.554-.125 1.093c-.059.234-.05.51-.409.484-.359-.025-.66-.15-.651-.6 0-.644-.009-1.286-.009-2.213m.276 4.39a.593.593 0 0 1 .668.585c0 .275-.05.567-.459.542s-.56-.225-.551-.684c0-.292.108-.434.342-.442m4.348 5.468c1.002.125 1.094.242 1.035 1.293v1.837c0 .475-.25.667-.692.617-.735-.075-1.461-.133-2.179-.275-1.11-.226-2.203-.518-3.338-.751a38 38 0 0 0-2.429-.434.695.695 0 0 1-.677-.49.7.7 0 0 1-.024-.295v-1.836c0-.61.325-.776.934-.66 2.446.46 4.917.668 7.37.994m-2.428-5.175q.834.083 1.727.2c.292 0 .543.167.535.51-.009.341-.309.483-.643.483h-.367a7 7 0 0 1-1.361-.192c-.342-.05-.434-.292-.401-.6a.41.41 0 0 1 .16-.322.41.41 0 0 1 .35-.08m-.376-2.504v-1.57c-.042-1.493.234-2.98.225-4.481 0-.835.201-1.01 1.044-.994h.459c1.135.067 1.218.184 1.185 1.294-.05 1.502-.058 2.996-.05 4.499 0 .617-.117 1.218-.159 1.82 0 .45-.258.575-.684.492-.426-.084-.785-.084-1.177-.134-.693-.117-.826-.258-.843-.96zm4.891-4.098c0 .592-.359 1.093-.367 1.669 0 .943-.084 1.886-.159 2.83 0 .308.151.734-.342.834-.334.059-.526-.284-.526-.901q-.046-.967.059-1.928.162-1.737.15-3.48a3.47 3.47 0 0 1 .626-2.23c.35-.425.317-1.043.551-1.669 0 1.661-.009 3.255.008 4.841zm-1.052 7.078c.334.066.66.166.985.242a.69.69 0 0 0 .76-.184c.175-.225.075-.442 0-.676a5 5 0 0 1-.142-2.437c0-.576.108-1.16.117-1.745.008-.584.1-.76.834-.834 1.044-.067 2.07.2 3.114.183h.918c.651 0 .743.109.776.743-.015.336.015.674.092 1.002.058.175.142.35.367.35s.317-.175.351-.359a6 6 0 0 0 .05-.642c.042-.902.108-.952.968-.835.3.05.609.092.91.117.584 0 .834-.117.834-.701v-1.561c0-2.596.176-5.192.151-7.796v-6.677c.175.835.142 1.753.292 2.62.125.735.517 1.136 1.218 1.01a3.2 3.2 0 0 1 1.169 0 .642.642 0 0 0 .835-.642c.091-1.102.166-2.195.192-3.339 0-.634-.284-.834-.935-.834-.142 0-.292.092-.443 0-.142-.242-.05-.534-.108-.835-.142-.61-.459-.835-1.077-.634l-.259.092c-.242.083-.509.358-.742.1a.83.83 0 0 1 0-.835c.1-.325.392-.35.676-.35h3.054a4 4 0 0 0 1.002-.05c.134.734.15.767-.467.993a.884.884 0 0 0-.626.993c0 .793.108 1.586.158 2.379q.038.505 0 1.01c-.05.65.084 1.16.835 1.302a.83.83 0 0 1 .551.459c.834 1.335 1.944 2.504 2.704 3.931.215.301.323.665.309 1.035a33 33 0 0 0-.134 5.141c0 2.938-.192 5.843-.242 8.806 0 1.252-.083 2.504-.125 3.764 0 .835-.159.935-1.018.785h-.092c-.392-.167-.91.067-1.227-.267s-.209-.835-.225-1.236c-.017-.4-.301-.567-.668-.634-.993-.167-1.978-.375-2.98-.5-4.073-.518-8.146-1.002-12.219-1.503-.835-.092-.968-.225-.952-.71.009-.191.151-.333.459-.275zm1.745-8.155c.117-1.953.042-3.915.183-5.843.142-1.928.101-1.485 1.67-1.502.834 0 1.001.142.935.943-.192 2.254-.101 4.516-.176 6.778v.183c0 .76-.1.835-.834.835h-.459c-1.327-.117-1.394-.125-1.319-1.427zm3.338.067c.076-2.137.167-4.265.176-6.41 0-.76.108-.835.834-.835h.092c1.394 0 1.528.142 1.494 1.57-.15 2.11-.117 4.306-.158 6.501 0 .835 0 .835-.835.835-1.661-.092-1.703-.092-1.644-1.695zm3.339-6.294c0-.684.109-.784.71-.793.734 0 1.009.193 1.018.835v6.978a1.163 1.163 0 0 1-1.528 1.06.527.527 0 0 1-.358-.651c.166-2.512.016-4.991.083-7.462zm8.797-4.04c2.446-.15 4.716-.074 6.995-.066 2.271-.05 4.544.05 6.802.3-1.11.318-2.22.651-3.338.952-2.454.65-4.925 1.244-7.345 2.011a.835.835 0 0 1-1.035-.292c-.735-.943-1.386-1.861-2.154-2.938zm-16.451 26.735c0-.927.192-1.828.167-2.746 0-.376.251-.551.559-.635a5 5 0 0 1 1.92 0c.351.042.401.343.401.626v2.12q.075 1.148 0 2.296a.48.48 0 0 1-.161.419.47.47 0 0 1-.44.09c-.634-.1-1.269-.217-1.895-.343-.392-.075-.626-.283-.459-.709s-.092-.76-.092-1.118m0 3.438c-.183.276-.425.142-.651.1-1.928-.375-3.839-.759-5.767-1.126-1.069-.2-2.145-.36-3.222-.534v-.167c1.027-.259 2.062-.476 3.063-.835a6.85 6.85 0 0 1 3.531-.075c.474.109.958.176 1.444.2.642 0 .734.117.709.76a1 1 0 0 0 .267.743c.268.267.481.585.626.934m-9.406-12.995 1.586.217c.308.042.55.15.5.509s-.133.701-.592.668c-.459-.034-1.085-.117-1.67-.192-.584-.075-.751-.234-.709-.835.042-.6.526-.309.885-.367m26.191 17.586c.075.25.351.45.209.835a5.7 5.7 0 0 1-1.753-.217c-.668.15-.601.108-.91-.426a4.7 4.7 0 0 1-.375-2.137 1.328 1.328 0 0 0-2.003-1.218.77.77 0 0 0-.568.66 8 8 0 0 0-.15 2.002c.108.543 0 .651-.559.685q-.458.035-.91-.042c-.292-.05-.534-.242-.476-.576a4.86 4.86 0 0 0-.384-2.237 2.14 2.14 0 0 1 0-1.427c.526-1.344.25-1.803-1.01-2.646-.309-.2-.651-.342-.96-.542a.56.56 0 0 1-.272-.38.58.58 0 0 1 .105-.455 1.98 1.98 0 0 1 2.312-1.085 7.05 7.05 0 0 0 3.439-.234 1.46 1.46 0 0 1 1.386.1.53.53 0 0 0 .451.13.55.55 0 0 0 .383-.272.65.65 0 0 1 .643-.283c.684.133 1.394.116 2.078.317a.777.777 0 0 1 .651.834c.036.366.013.735-.066 1.094-.626-.175-1.102-.618-1.728-.668-.251 0-.317-.267-.443-.434-.125-.167-.459-.476-.784-.326-.326.15-.067.485-.05.835-.409 0-.785.276-1.219.067a.35.35 0 0 0-.417.109c-.584.675-1.127.183-1.628-.084-.3-.159-.534-.417-.909-.342a.33.33 0 0 1-.326-.134c-.15-.192-.284-.467-.559-.392a4 4 0 0 0-.835.392c-.142.084-.259.25-.2.384.133.424.118.88-.042 1.294-.083.542.184.835.676.634s.559 0 .735.292c.375.593.734 1.202 1.126 1.786.393.585.61.627 1.119.368s.643-.676.125-1.119a2.9 2.9 0 0 1-.776-1.101c-.15-.334 0-.568.292-.418a1.17 1.17 0 0 0 1.486-.233q.319-.175.676-.242c-.144.29-.349.547-.601.75-.22.213-.389.473-.493.76a.36.36 0 0 0 .109.418.32.32 0 0 0 .417-.042q.19-.13.326-.317c.343-.48.802-.865 1.335-1.119.284.226.25.61.434.877s.768.425.835 0c.142-.752.718-.835 1.293-1.102a14 14 0 0 1-.108 2.354 3.04 3.04 0 0 0 .543 2.228c-.351.1-.543-.083-.752-.133-.567-.126-.834 0-.968.534a2.95 2.95 0 0 0 .05 1.644m1.519 2.763a1.26 1.26 0 0 1-.726-.551c.651.175 1.235.3 1.519-.442a.204.204 0 0 1 .247-.057.2.2 0 0 1 .07.056.42.42 0 0 1 .126.418.995.995 0 0 1-1.236.6zm4.332.375c.618-.292 1.252-.242 1.861-.484a1.67 1.67 0 0 1-1.861.51zm2.571-18.83v-2.93a6.56 6.56 0 0 1 0 2.93m.951 3.239c0-.3-.066-.643.426-.643.493 0 .743.176.751.685s-.125.634-.567.634c-.443 0-.618-.125-.61-.676m12.662 14.548a1.93 1.93 0 0 0-.701 1.527c0 .21.058.426.075.635.067.834.067.901-.835.768a1.14 1.14 0 0 0-1.352.659c-.183.359-.334.835-.935.601 0-.292.234-.35.351-.51a1.42 1.42 0 0 0 .325-.979 1.42 1.42 0 0 0-.425-.94 1.34 1.34 0 0 1-.401-1.235 1.6 1.6 0 0 0-.491-1.383 1.6 1.6 0 0 0-1.412-.403.56.56 0 0 0-.509.559c-.125.893-.476 1.77-.167 2.67-.067 0-.092.06-.117.06-.701-.076-1.594.083-2.003-.46a5 5 0 0 1-.726-2.504 2.5 2.5 0 0 1 .442-2.17l.059-.092a6.8 6.8 0 0 0-.593-2.095c1.119-.067 1.152-1.085 1.611-1.72.175-.233-.1-.45-.334-.542a5.4 5.4 0 0 1-1.077-.492c-.442-.309-.834-.142-.951.392-.083.326-.1.61-.484.835-.643.317-.634.776-.05 1.252q.102.091.217.167a.66.66 0 0 1-.718-.084c-.3-.267-.701-.517-.835-.834a1.77 1.77 0 0 1 .426-1.62.44.44 0 0 1 .484-.175 1.02 1.02 0 0 0 .893-.375 1.17 1.17 0 0 1 1.259-.404c.15.045.29.12.411.22a1.17 1.17 0 0 0 1.277.175.45.45 0 0 1 .584.075.7.7 0 0 0 .481.258.7.7 0 0 0 .52-.166 4.63 4.63 0 0 1 4.107-.534c.526.15 1.085.159 1.669.259a1.14 1.14 0 0 1 .936.715 1.15 1.15 0 0 1-.193 1.163.3.3 0 0 1-.401.1c-.55-.3-1.151 0-1.719-.15-.259-.059-1.002.609-1.052.834a.34.34 0 0 0 .013.18.34.34 0 0 0 .104.146c.159.15.309.359.493.409.784.2.834.776.834 1.419a1.37 1.37 0 0 0 .359 1.018c.334.342.66.275.835-.175a12 12 0 0 0 .2-1.444c.326.041.242.267.234.425q.036.918-.092 1.828a1.45 1.45 0 0 0 .442 1.57c.059.05.059.166.101.3-.418.159-.81-.042-1.169.267m-11.151-16.626c0-2.713 0-5.417.225-8.163v8.163zm.76 2.262c0-.25.133-.476.517-.501s.893.217.927.55a.702.702 0 0 1-.643.835c-.501.025-.768-.233-.801-.884m1.727-11.302c.129 1.463.165 2.932.109 4.399a13 13 0 0 1-.109-4.399m2.129 1.035c0-.3-.167-.667.2-.834a1.48 1.48 0 0 1 1.244.041c.192.1.133.31.133.501v2.922h-.142V64.7a2 2 0 0 1-.066.359c-.042.309-.059.634-.485.634a.774.774 0 0 1-.834-.55 2.7 2.7 0 0 1-.075-.835c.092-2.012-.109-4.024.075-6.035a2 2 0 0 0-.05-.376m.659 10.475c.417.109.493.267.493.752 0 .484-.117.659-.643.592s-.96-.133-1.436-.242a.84.84 0 0 1-.622-.779.8.8 0 0 1 .063-.348.44.44 0 0 1 .526-.258q.816.075 1.619.242zm2.279.326c.626.125 1.268.2 1.894.325a.66.66 0 0 1 .512.567.7.7 0 0 1-.028.268c-.066.334-.158.684-.659.534s-1.26-.15-1.895-.259c-.467-.083-.534-.308-.442-1.01.05-.425.234-.534.618-.467zm-.601-5.317c.092-1.736.192-3.714.284-5.7 0-.368.15-.56.559-.51.609.084 1.218.134 1.819.2.284 0 .409.167.459.468.067.789.067 1.582 0 2.37 0 1.795-.133 3.59-.125 5.384 0 .834 0 .834-.885.751-.425-.05-.834-.092-1.268-.175-.835-.15-.835-.192-.877-1.077zm4.031-2.446c0-.918.1-1.827.175-2.745 0-.401.192-.61.626-.61a8 8 0 0 1 1.553.142c.634.125.718.184.701.835a26 26 0 0 1-.075 3.614c0 .626-.05 1.577 0 2.504 0 .626-.167 1.21-.15 1.82a.46.46 0 0 1-.585.517 46 46 0 0 1-1.903-.309.583.583 0 0 1-.5-.743c.162-1.683.215-3.376.158-5.066zm.768 8.422c.392.075.91.142 1.402.276.493.133.635.55.484 1.101-.15.551-.484.368-.834.318a24 24 0 0 1-1.344-.268c-.609-.133-.743-.35-.668-.951s.468-.534.96-.518zm.751 11.176a.2.2 0 0 1 0-.092c.125-1.86.251-3.722.393-5.575 0-.084.066-.167.141-.317.293.267.626.425.969.167 1.168-.885 2.437-.835 3.781-.543 2.504.468 5.008.835 7.511 1.277.885.15.994.25.935 1.119-.1 1.494.151 2.996 0 4.49 0 .267 0 .55-.05.835-.05.283-.2.434-.425.267a2.3 2.3 0 0 0-1.762-.234 2.7 2.7 0 0 1-.993-.117c-1.36-.367-2.788-.317-4.173-.768a13.6 13.6 0 0 0-2.345-.375 1.88 1.88 0 0 1-1.67-1.67 5 5 0 0 1 .192-2.787c.259-.635.084-.935-.359-1.019-.642-.133-1.085.1-1.152.718a5 5 0 0 0 0 1.92c.165.897.21 1.812.134 2.72 0 .285 0 .568-.426.543-.425-.025-.651-.175-.701-.6zm2.663-10.583 2.337.367a.627.627 0 0 1 .567.743c0 .66-.158.834-.759.743a35 35 0 0 1-2.062-.376.97.97 0 0 1-.526-.56.98.98 0 0 1 .042-.767.38.38 0 0 1 .401-.192zm-.334-6.477c0-1.594.05-3.18.209-4.766.066-.71.116-.785.834-.776a11.6 11.6 0 0 1 2.012.167.58.58 0 0 1 .553.428q.034.122.014.248c0 1.469.109 2.946-.05 4.407-.133 1.285-.058 2.57-.142 3.856-.05.7-.158.834-.834.71-.676-.126-1.211-.193-1.812-.318-.6-.125-.759-.25-.767-.926-.025-1.052-.017-2.062-.017-3.072zm4.858 7.178c.684 0 .834.15.834.676s-.183.718-.834.701-.835-.134-.835-.684c0-.551.217-.743.835-.735zm-.618-3.572c0-2.605.108-5.2.234-7.804q.026-.228.075-.451c.125-.568.133-.568.734-.56.835 0 .902.1.885.885-.058 2.438-.109 4.883-.159 7.32q.003.553-.108 1.094c-.092.392-.259.592-.693.55-.617-.066-.885-.233-.951-.667a3 3 0 0 1-.017-.367m2.562-2.32c0-1.837.151-3.665.234-5.493 0-.76.117-.834.885-.784s1.335.117 2.003.183c.668.067.659.134.668.76q.099 1.469 0 2.938c-.201 1.77-.075 3.539-.134 5.308 0 1.235-.125 1.319-1.327 1.102-.576-.1-1.143-.2-1.719-.267s-.618-.259-.601-.726c.008-1.019-.017-2.029-.017-3.03zm.71 6.26 4.332.834c1.452.267 1.452.259 1.435-1.202v-2.938a1.73 1.73 0 0 1 .359-1.285c.284-.31.167-.76.159-1.152 0-1.453 0-1.503 1.46-1.42 1.461.084 2.93.243 4.391.426.901.109.909.176.893 1.136v1.193c0 .593.233.835.609.835s.568-.317.526-.902c0-.358-.092-.726-.092-1.093 0-.718.234-.943.935-.918.426 0 .835.05 1.285.092.635.067.835-.1.835-.743 0-2.504 0-4.95.042-7.429 0-3.43-.059-6.869 0-10.3 0-1 .058-2.02 0-3.02a8 8 0 0 1 0-.927c0-.242.116-.426.384-.418a.386.386 0 0 1 .325.393c.058.61.058 1.225 0 1.836-.142 1.068-.083 2.137-.158 3.205 0 .426-.117.835-.142 1.277-.05.651.083.835.734.902 1.569.116 1.911 0 1.945-1.595 0 .059 0 .117.042.176 0 .409 0 .834.559.893a.97.97 0 0 0 .985-.835q.184-.824.2-1.67v-4.039a.84.84 0 0 1 .434-.835q.193-.115.359-.267.164-.151.284-.342c0-.3.058-.6.108-.901a.34.34 0 0 1 .317-.276.36.36 0 0 1 .393.3q.033.18.041.36l.05 3.088v.225c.051 1.219.109 2.437.151 3.664.037.368.176.717.4 1.01 1.019 1.528 2.029 3.063 3.072 4.583.3.426.453.939.434 1.46 0 4.875 0 9.749-.067 14.623-.05 2.07-.05 4.174-.275 6.227-.109 1.001 0 2.02 0 3.03 0 .75-.125.834-.835.834a4 4 0 0 1-.634-.083c-.777-.142-.835-.2-.977-.977-.367-1.953-.367-1.936-2.404-2.22-2.454-.35-4.916-.676-7.353-1.11-3.339-.601-6.786-.993-10.174-1.502-1.812-.276-3.614-.626-5.426-.952-.258-.05-.559-.092-.684-.392-.267-.626.042-.985.734-.868zm5.266-8.948a24 24 0 0 0-.492 6.093v.459c0 .292-.075.584-.442.559-.368-.025-.701-.109-.735-.543a5.7 5.7 0 0 1 0-1.193c.2-1.611.084-3.239.167-4.85.059-1.135.117-2.261.159-3.388q.211-.94.584-1.828c.217-.968.517-1.92.784-2.871.208.603.266 1.247.167 1.878-.183 1.669-.066 3.338-.15 5.008q.015.34-.042.676m4.366-6.46c-.059 1.953 0 3.914-.05 5.842s.192 1.51-1.486 1.502a8.4 8.4 0 0 1-1.277-.158c-.659-.109-.693-.142-.71-.835v-3.489c-.075-1.986.201-3.964.192-5.95 0-.836.109-.91.985-.836.551.059 1.102.059 1.67.1.676.06.834.168.751.835-.117 1.044-.05 2.012-.075 2.98zm6.677 3.28c.042 1.377-.092 2.746-.142 4.123a.46.46 0 0 1-.137.375.46.46 0 0 1-.38.126 4 4 0 0 1-.46 0c-.834-.084-.951-.234-.951-1.035v-9.307c0-.951.058-.993.977-1.001h.367c.651.041.751.125.751.768 0 1.01-.083 2.02-.042 3.021.042 1.002-.033 1.936 0 2.921zm11.844 27.785c0 .234-.084.367-.317.484-.702.35-.693.576 0 1.052q.155.086.292.2a.36.36 0 0 1 .066.26c-.041.15-.175.15-.292.108a2.7 2.7 0 0 1-.667-.293c-.436-.44-1-.732-1.611-.834-.276 0-.217-.226-.167-.41s.267-.333.384-.508a.55.55 0 0 0-.011-.688.55.55 0 0 0-.198-.147c-.25-.175-.467-.075-.593.192a1.06 1.06 0 0 1-.434.467.44.44 0 0 1-.584 0 2.73 2.73 0 0 1-1.026-1.368q-.15-.624-.409-1.21a2.1 2.1 0 0 0-.601-.91c-.418-.384-.418-.576-.101-1.002.418-.568.284-1.144-.358-1.169a5.6 5.6 0 0 1-1.67-.45 4 4 0 0 0-.834-.075c.258-.31.601-.226.884-.217.885 0 1.761.041 2.646 0a1.08 1.08 0 0 1 .885.275 2.21 2.21 0 0 0 1.878.526c.217.225-.092.309-.117.459-.067.35.618.517.25.835-.367.317-.267.525-.392.784s-.2.326-.1.426c.517.517.134 1.01 0 1.519-.15.676 0 .835.709.676.309-.075.61-.05.91-.117s.551-.25.384-.576-.375-.334.142-.409c.518-.075.626-.509.426-1.102a10.4 10.4 0 0 0-1.294-2.27 1.26 1.26 0 0 1 .659 0c.676.084.676.084.752.751a.7.7 0 0 0 .05.267c.859 1.403.267 2.972.442 4.466zm-10.667-4.298a.5.5 0 0 1 .492.626.22.22 0 0 1-.242.225c-.142-.008-.551-.442-.517-.684.033-.242.117-.192.25-.176zm-.902-1.478a1.32 1.32 0 0 1 .76-.317c.108 0 .267 0 .292.126a.84.84 0 0 1-.05.433c-.05.142-.192.109-.301.059zm1.161-4.29c0-.192 0-.417.267-.392.384 0 .333.367.359.61.025.241 0 .492-.201.475-.409-.033-.417-.4-.442-.701zm-8.748 2.922c.05 1.126 0 2.261.134 3.388.083.66-.15 1.336-.109 2.012 0 .233-.167.317-.375.267-.384-.092-.768-.2-1.152-.309l-2.195-.66c-.76-.225-.76-.233-.835-1-.075-.769.184-1.67.167-2.505v-4.04c0-.709.109-.776.835-.793q.317-.018.634 0c.918.109.918.117 1.119-.734.183 0 .233.175.267.326a1.07 1.07 0 0 0 1.252.926 1.97 1.97 0 0 1 1.402.326.484.484 0 0 0 .668-.067.54.54 0 0 0 .091-.668c-.1-.234-.35-.568 0-.693.351-.125.426.276.484.543.126.55.243 1.051.885 1.26.259.075.242.367-.05.45-.526.168-1.06.285-1.594.418-.184 0-.367 0-.551.075-.993.267-1.135.41-1.093 1.47zm-3.814 7.002a86 86 0 0 1-10.475-2.278c.918-.376 1.669-.693 2.454-.993a.84.84 0 0 1 .434-.084c.601.175 1.227.084 1.828.2.601.117 1.102.059 1.469.61.142.208.442.183.693.117a2.42 2.42 0 0 1 3.029 1.502c.151.317.459.542.551.918zm-14.523 1.41a2.7 2.7 0 0 0 1.227-1.076c-.1 1.077-.434 1.386-1.227 1.077m.459-5.842q.368.778.835 1.503c-.593-.234-.827-.618-.835-1.503m11.351 7.512c-2.671-.542-5.291-1.335-7.971-1.811a1.5 1.5 0 0 1-1.118-.835 5.1 5.1 0 0 0-1.194-1.727c-.116-.1-.217-.234-.133-.401s.3-.133.476-.109c1.853.268 3.664.752 5.492 1.136 2.328.5 4.657 1.043 6.994 1.527a1.84 1.84 0 0 1 1.436.985c.284.51.626.986 1.018 1.419a.98.98 0 0 1 .376.834c-1.837-.383-3.606-.684-5.376-1.018m7.679 1.494a1.85 1.85 0 0 1-1.294-.834c-1.16-1.536-2.228-3.147-3.397-4.674a.84.84 0 0 1-.25-.485c.159-.258.376-.125.568-.066 1.11.342 2.211.692 3.338 1.051a1.27 1.27 0 0 1 .76.626q.627 1.122 1.435 2.12c.56.835 1.052 1.67 1.67 2.613-1.077-.175-1.953-.242-2.83-.376zm3.189-15.332c.217-.067.325.125.4.292.275.612.319 1.302.125 1.945a3.66 3.66 0 0 1-.717-1.77c-.009-.2-.025-.426.192-.492zm.417 7.436a2.44 2.44 0 0 1-.084-1.11c0-.225.076-.425.334-.475a.38.38 0 0 1 .409.284c.138.313.337.597.585.834a6 6 0 0 1-1.244.442zm2.17-6.201a.766.766 0 0 1-.476-1.06.25.25 0 0 1 .309-.125c.234.083.276.367.167 1.185m12.236 13.872c-.517-.41-1.052-.2-1.586-.1-.392.083-.501.442-.551.768-.066.45-.083.901-.125 1.418a.84.84 0 0 1-.601-.776c-.05-.392-.125-.784-.158-1.177a.83.83 0 0 0-.409-.684c-.293-.184-.71-.083-.727.25-.05.96-.317 1.954.343 2.83a1.08 1.08 0 0 0 1.268.517c.443-.183.61 0 .835.25q.212.216.451.401a4.7 4.7 0 0 1-1.486-.283c-.951-.217-.951-.226-1.344.659-.167.384-.208.392-.976.159.288-.526.429-1.12.409-1.72.05-.442-.393-.834-.276-1.11.184-.509-.058-.734-.325-1.026s-.109-.51 0-.785c.167-.71.058-.835-.626-1.018-.451-.092-.902-.209-1.352-.284-.835-.15-1.077 0-1.161.935 0 .425-.05.834-.091 1.277 0 .217-.059.425-.092.634-.059.359-.217.526-.626.484a5.9 5.9 0 0 0-1.912.059.95.95 0 0 1-.459 0c-.509-.117-.576-.334-.233-.735l.3-.342a.42.42 0 0 1 .337-.217.41.41 0 0 1 .364.167c.243.236.526.428.835.567.559.292.835.109.901-.517a1.7 1.7 0 0 0-.041-.551 8 8 0 0 1-.126-1.736 1.37 1.37 0 0 1 .384-1.169.836.836 0 0 0 .201-1.01c-.192-.417-.56-.434-.943-.325-.384.108-.835-.225-1.144.092s.2.734.184 1.102c0 .709.208 1.385.108 2.086 0 .267-.092.493-.434.468-.342-.026-.559-.1-.559-.46 0-.358-.209-.834.492-.776.134 0 .234-.158.201-.258-.192-.51.117-1.21-.593-1.528a.403.403 0 0 1-.234-.534 1.72 1.72 0 0 0-.133-1.861c.834.117.901.192.834.717-.058.3 0 .493.268.576a.75.75 0 0 0 .834-.267c.192-.2.276-.5.05-.66-.484-.333-.45-.834-.467-1.276.835.083.835.075 1.068-.776a1.6 1.6 0 0 1 .259-.835c.401.192.576.593.835.835 0 .208-.176.208-.251.292-.284.35-.192.734.226.71.601-.043.701.325.834.717.309.734.635 1.46.96 2.187.209.45.417.835 1.068.835a1.51 1.51 0 0 1 1.252.834 1.294 1.294 0 0 0 1.67.643.54.54 0 0 1 .526 0 1.56 1.56 0 0 0 1.151.175.995.995 0 0 1 1.136.543c.15.258.417.45.409.834a.89.89 0 0 1-.994-.225zm2.504 2.67a7.4 7.4 0 0 0-1.26-3.78 1.2 1.2 0 0 1-.234-.693c-.067-1.67.067-3.339.067-5.008 0 .776.067 1.553.05 2.337a2 2 0 0 0 .834 1.67c.226.183.476.35.735.133s.501-.618.234-.835c-.785-.784-.601-1.744-.635-2.67a2.18 2.18 0 0 0-.5-1.353c-.259-.3-.51-.617-.768-.91a1.33 1.33 0 0 1-.376-.91v-5.608a.99.99 0 0 1 .502-.827.99.99 0 0 1 .967-.008.466.466 0 0 1 .242.543c-.325 2.162 0 4.348-.284 6.51a2.24 2.24 0 0 0 1.544 2.646c.736.2 1.381.644 1.828 1.26-1.143.2-1.302.977-1.427 1.837a7.7 7.7 0 0 0 .159 3.63c.217.676-.159 1.252-.251 1.878 0 .15-.183.234-.334.284-.307.15-.588.347-.834.584-.284-.158-.276-.476-.301-.71zm7.662-27.885.125 7.22v.734c-.041.918-.158 1.069-1.026.91a17 17 0 0 0-2.922-.159c-.767 0-1.527 0-2.295-.1-.634-.058-.759-.183-.509-.784s.659-1.377 1.002-2.062c.734-1.469 1.494-2.938 2.211-4.424.718-1.485 1.578-2.829 2.346-4.256q.096-.16.233-.284c.151-.15.326-.317.56-.25.233.066.267.317.275.525v2.012c0 .3 0 .61-.05.918zm-2.203-2.946c-.76 1.26-1.428 2.57-2.145 3.856-.576 1.001-.969 2.103-1.52 3.138a26 26 0 0 1-1.669 3.055 1.67 1.67 0 0 0-.25 1.06c0 .5-.284.567-1.052.526-.467 0-.526-.343-.492-.743.197-.764.516-1.49.943-2.154 1.218-2.17 2.32-4.39 3.48-6.585.443-.835.935-1.67 1.428-2.454.232-.362.562-.65.951-.834.301-.159.442 0 .501.275.042.304-.036.612-.217.86zm-3.339 32.843c-.159.3-1.152.1-1.244-.217-.091-.317.368-.742.835-.834s.776-.142.91-.718c.217.434.342.701.509 1.026-.417.226-.835.318-1.043.743zm1.11-16.476c-.835-.067-.918.059-1.043.835a15 15 0 0 0-.109 2.287v1.56a1.284 1.284 0 0 1-1.385-1.143 3 3 0 0 1-.125-.534c0-1.836-.101-3.672 0-5.5 0-.092.05-.184.05-.276 0-1.185-.109-1.335 1.56-1.293.61 0 1.219 0 1.828.041.468 0 .61.226.418.668a9 9 0 0 0-.476 2.688c-.075.692-.084.717-.751.667zm4.566 20.616a8.1 8.1 0 0 0-2.504-.91.35.35 0 0 1 .05-.392c.509-.776.701-.835 1.41-.184q.347.297.643.643a2.73 2.73 0 0 0 1.736 1.019 1.28 1.28 0 0 1-1.335-.176m3.43-.175c.225-.117.067 0 .117-.15s0-.059.05-.059h4.173c-1.352-.008-2.762.392-4.307.209zm7.762-13.505c-.559.084-.709.267-.742.835v1.102c0 .367.041.55-.451.567-.493.017-.543.468-.518.835s.318.442.96.225c.276.534.234 1.21.751 1.67-.517-.042-.909-.076-1.151.45s-.735.175-1.069.493a9.6 9.6 0 0 1-.459-2.705c-.05-1.16-.158-1.293-1.302-1.485-1.786-.292-3.581-.51-5.35-.835-1.594-.3-3.205-.476-4.783-.835a1.11 1.11 0 0 1-.985-1.001 29 29 0 0 1-.267-4.574.533.533 0 0 1 .535-.61 3 3 0 0 0 .367-.05c.834-.183.943-.292.96-1.176.016-.885 0-1.67 0-2.504a2.4 2.4 0 0 1 .05-.551.67.67 0 0 1 .684-.51.65.65 0 0 1 .676.502c.097.322.145.656.142.993q-.009.15.044.291a.7.7 0 0 0 .415.4.7.7 0 0 0 .292.035c2.237.067 4.466.259 6.678.125 1.318-.075 2.629-.092 3.947-.133q1.331.015 2.655.166a1.46 1.46 0 0 1 1.01.501.45.45 0 0 1-.434.192c-1.553 0-3.097.367-4.649 0-.551-.133-1.102-.409-1.67-.083a.09.09 0 0 1-.083 0c-1.035-.41-1.828.192-2.671.617a96 96 0 0 1-2.312 1.136 1.015 1.015 0 0 0-.643 1.093c.084 1.527.125 3.063.209 4.59a.917.917 0 0 0 .835.969c.534.133.834 0 .926-.585.159-.726.159-.717.901-.692a7.4 7.4 0 0 1 1.711.15c-.108.209-.342.242-.517.359-.384.284-.426.534-.083.834a3.6 3.6 0 0 0 1.627.835.57.57 0 0 0 .442 0 .84.84 0 0 1 .726-.242.84.84 0 0 1 .618.45.35.35 0 0 0 .159.101c.3.125.668.392.918.083.25-.308-.067-.626-.309-.834-.242-.209-.342-.41 0-.76.835-.768 1.828-.542 2.754-.693a6.5 6.5 0 0 0 2.271-.592c.676-.376 1.494-.05 2.22.175.3.1.284.426.284.76-1.837-.184-3.631-.067-5.434-.075a5.5 5.5 0 0 0-.851-.009zm-9.273-23.212c0-.6.084-.684.71-.692h6.335c.768 0 .751.091.759.75v10.651c0 1.027 0 1.06-1.01 1.06h-5.784c-.734 0-.834-.1-.834-.835v-2.662a3777 3777 0 0 0-.142-7.679 3 3 0 0 1-.034-.593m5.926 20.2a1.19 1.19 0 0 1 .192-1.06c0 .083.042.174.05.258.134.893.243.935.969.367a.83.83 0 0 1 .492-.209h2.387c.518 0 .334.484.576.777-.461.11-.937.15-1.41.117-.276 0-.635-.05-.835.091-.317.267-.518.56-.977.242-.158-.1-.3.15-.35.334a1.26 1.26 0 0 1-.76 1.027c-.367.142-.459.626-.517 1.027a4 4 0 0 1-.075.542.3.3 0 0 1-.209.142.184.184 0 0 1-.184-.25c.151-.526.259-1.077.459-1.586a2.94 2.94 0 0 0 .192-1.82m-1.427-.694a.61.61 0 0 1-.659.693c-.351 0-.534-.267-.534-.71s.217-.675.576-.65a.65.65 0 0 1 .617.667m11.176 5.392c-.116.72-.158 1.45-.125 2.179 0 .442-.192.7-.659.684a2.2 2.2 0 0 1-2.004-.835 9.6 9.6 0 0 0-1.068-1.126c-.459-.493-.426-.885.175-1.152.773-.306 1.576-.53 2.396-.668.25 0 .434 0 .617.058.601.092.768.26.668.86m4.516 14.765c-.476.109-.735.176-1.002.217s-.526.134-.784.209c-.259.075.066.776-.451.309a.97.97 0 0 0-.793-.117c-.276 0-.534.133-.835.158-.3.026-.442.226-.693.076.409-.359 2.872-.868 4.558-.852m-.409-13.162a17 17 0 0 1-1.01 3.238c-.109.35-.409.4-.735.434a56 56 0 0 1-6.986.109c1.269 0 2.554-.075 3.831-.15.918-.05 1.82-.243 2.738-.276.576 0 .593-.284.058-1.043.752-.217.985-.718 1.044-1.494.127-.588.202-1.186.225-1.786.901.2.918.217.835.968m-3.422-.125q.03-.908.183-1.803c0-.192.109-.36.342-.334s.242.158.268.317c.013.841-.068 1.681-.243 2.504a.33.33 0 0 1-.24.298.3.3 0 0 1-.135.01c-.2 0-.159-.233-.167-.375s0-.4 0-.617zM309.205 86c-.751 0-.742.059-1.118-.65a3 3 0 0 0-.384-.518c-.284-.35-.484-.651-.05-1.094.275-.284.117-.592-.334-.743-.451-.15-.835-.192-1.319-.292a.367.367 0 0 1 .426-.242c.835.342 1.611 0 2.396-.208.267-.059.492 0 .475.233-.067 1.027.509 1.945.443 2.972-.017.409-.167.526-.526.542zm4.541-12.436c0 .718-.109.835-.835.943s-1.402.058-2.111.067h-1.745c-.834 0-.901-.075-.901-.885v-9.457c0-.425.1-.834.1-1.277a.707.707 0 0 1 .835-.776c1.435.192 2.862-.117 4.298 0 .409 0 .534.184.534.551v2.112c0 2.237-.242 4.465-.2 6.677.025.693.025 1.402.025 2.045m-3.506 14.723c.092-.66.585-.943 1.052-1.352.109.342.192.626.292.935-.41.239-.87.381-1.344.417m2.212-5.15c-.475 0-.935-.375-.918-.726a.99.99 0 0 1 .927-.734.724.724 0 0 1 .776.717.836.836 0 0 1-.785.743m7.245-14.114a227 227 0 0 0 2.003 4.04c.305.537.405 1.165.284 1.77a6 6 0 0 0 0 1.669 23 23 0 0 1 0 3.188 18 18 0 0 0 0 2.012 1.59 1.59 0 0 1-.768 1.36 4.5 4.5 0 0 1-1.143.593 1.01 1.01 0 0 0-.835.985c0 .392-.134.784-.142 1.185a.75.75 0 0 1-.684.834c-1.177.226-2.346.451-3.523.643-.267 0-.651.267-.834-.142a1.18 1.18 0 0 1 .142-1.135q.1-.094.217-.167a.91.91 0 0 0 .317-1.143 2.4 2.4 0 0 1-.075-1.352c.113-.83.141-1.669.083-2.504a1.005 1.005 0 0 0-.668-.985 27 27 0 0 1-3.939-2.295h5.183c.584 0 .693-.126.726-.702v-.926c0-.484.226-.61.835-.576.609.033.684.159.626.668a16 16 0 0 0-.05 2.203c0 .835.075.918.893 1.085.217 0 .342.109.359.326s-.159.225-.309.258l-2.037.551c-.333.06-.647.198-.918.401a.3.3 0 0 0 .117.56q.268.059.543.066c.2 0 .384.125.384.326 0 .75.592 1.018 1.16 1.385-.534.66-.426 1.269.225 1.594a.477.477 0 0 0 .71-.2c.104-.22.255-.413.442-.568a3.34 3.34 0 0 0 1.219-3.272 10 10 0 0 1 0-2.186c.058-1.135-.042-2.27.058-3.397a7.6 7.6 0 0 0-.793-3.79c-.609-1.377-1.227-2.746-1.769-4.173-.543-1.427-1.302-2.971-1.962-4.449a1.02 1.02 0 0 1-.183-.659.99.99 0 0 1 1.093.684q1.51 3.148 3.013 6.235m-4.223-3.981h.233c.482.816.895 1.67 1.236 2.554.626 1.728 1.377 3.414 2.128 5.083a2.64 2.64 0 0 1 .2 1.67c-1.001-.326-2.003 0-2.996-.118-.668-.083-.668-.075-.768-.767a29 29 0 0 1 0-5.008c-.008-1.16-.033-2.287-.033-3.414m2.696 16.944c-.159-.076-.368-.059-.493-.21a.534.534 0 0 1 .234-.834q.692-.2 1.344-.509a7 7 0 0 1-.134 2.137.592.592 0 0 1-.726.567.22.22 0 0 1 0-.284c.359-.542.292-.634-.225-.867m.542-3.865a.25.25 0 0 1-.242.234.26.26 0 0 1-.211-.069.26.26 0 0 1-.081-.207 29 29 0 0 0 .108-2.938c.209 0 .268.092.276.176q.015 1.257.175 2.504c.027.097.032.2.017.3zm-.476-23.045c0 2.504.276 5.075.159 7.62v.577c-.317 0-.326-.268-.409-.443s-.1-.292-.167-.434c-.609-1.427-1.377-1.886-2.879-1.602a9.3 9.3 0 0 1-1.728.133h-5.25a2.2 2.2 0 0 0-1.436.45 5 5 0 0 1-2.178.635c-.301.059-.61.1-.902.167-.158 0-.317.109-.283.292.033.184.2.226.358.217a9 9 0 0 0 2.454-.267c.701-.225.835-.117.835.601 0 1.26-.109 2.504-.125 3.764 0 2.27 0 4.541-.05 6.811 0 .893-.067.835-.935.968-1.895.267-3.789-.183-5.684.05-.476.067-.643-.15-.643-.776a42 42 0 0 1 .05-4.223c.117-1.26.05-2.504.075-3.764 0-.977 0-1.954.042-2.938 0-.752.05-.768.793-.718q.18.018.359 0a.36.36 0 0 0 .217-.142.2.2 0 0 0 .033-.087.2.2 0 0 0-.006-.093.22.22 0 0 0-.119-.137 5.2 5.2 0 0 0-1.878-.676c-1.836-.05-3.664-.184-5.509-.209a26 26 0 0 1-3.647-.409 19.5 19.5 0 0 1-3.097-.359c-.434-.142-.792.284-1.201.376a3.82 3.82 0 0 0-2.621 2.353c-.835 1.603-1.67 3.197-2.504 4.808-.459.893-.902 1.803-1.352 2.704a2.23 2.23 0 0 1-.66.91c.075-1.67-.075-3.155.1-4.674a7 7 0 0 0 .051-.835c0-3.338-.001-6.618.058-9.924q.048-.731.184-1.452c0-.334.275-.442.559-.526 1.21-.334 2.412-.692 3.631-1.01a525 525 0 0 1 6.944-1.77c2.32-.575 4.632-1.193 6.978-1.668 2.023-.34 4.081-.43 6.126-.267q.224.043.434.133l10.742 3.647c1.043.343 2.095.693 3.147 1.027a1.18 1.18 0 0 1 .934 1.16m-4.49-6.91a.83.83 0 0 1 .718.342l3.13 4.073c0 .041 0 .108.058.25l-13.546-4.34a1.6 1.6 0 0 1 1.21-.284c.913.096 1.833.096 2.746 0 1.853-.083 3.748-.033 5.684-.042m-7.512-12.162c.084-.192.125-.467.384-.45.259.016.234.325.234.517v1.72c-.05-.468-.493-.743-.551-1.177-.067-.2-.242-.418-.142-.61zm-2.087-1.402c-1.418.217-2.787 0-4.173.276v-.276zm-.726 2.671a2.36 2.36 0 0 1-1.46 0 .492.492 0 0 1-.368-.634.47.47 0 0 1 .545-.253.5.5 0 0 1 .19.102c.325.293.835.276 1.077.618-.059.025-.067.067-.059.167zm-3.589-1.744c.259.834 0 1.719.718 2.362-.284.058-.609 0-.618-.317a7.3 7.3 0 0 1-.1-2.045m-2.153 5.425c2.237.05 4.474 0 6.677.075 1.402.042 2.813 0 4.223-.058.71 0 1.403.142 2.095.2a1.15 1.15 0 0 1 1.102 1.052c.196.991.255 2.005.175 3.013-.083.726-.342 1.051-1.068 1.135-.726.083-1.227.041-1.836.05h-2.295c-2.696.117-5.384 0-8.072 0a1.516 1.516 0 0 1-1.535-1.043 5.3 5.3 0 0 1-.409-1.87c0-.492-.084-.977-.109-1.46-.033-.802.234-1.11 1.052-1.094m-1.995 7.403a3 3 0 0 1-1.227.36 403 403 0 0 1-6.034 1.593q-4.457 1.128-8.915 2.212c-.409.092-.834.476-1.201.3-.368-.175-.585-.684-.835-1.051-.685-.943-1.344-1.903-2.012-2.855a1.36 1.36 0 0 1-.384-.96c6.845.36 13.63.017 20.608.401m-2.103-6.076a7.5 7.5 0 0 1 0 3.005c-.242.893-.476 1.085-1.419 1.102h-1.219c-1.11.108-2.32-.16-3.555-.142-1.236.016-2.621.217-3.94.158-1.895-.083-3.789-.225-5.692-.175a3.4 3.4 0 0 1-.835-.134 1.136 1.136 0 0 1-1.002-1.21c0-.793-.167-1.577-.125-2.379.067-1.302.551-1.736 1.836-1.727h9.549c1.669 0 3.339.15 5.008.15 1.085.033 1.268.275 1.394 1.352m-9.707-7.512h6.861v.109c-.117 0-.243.041-.359.041-.893-.05-.885-.05-1.044.768-.058.334-.2.651-.233.977-.042.467-.343.517-.835.542a5.3 5.3 0 0 0 .609-1.844c.092-.434-.067-.568-.492-.493-.651.1-.835.267-.885.918-.024.244-.098.48-.217.693-.125.2 0 .418 0 .643-.334 0-.426-.551-.835-.292a.273.273 0 0 1-.369-.005.3.3 0 0 1-.073-.112.5.5 0 0 1 0-.601.63.63 0 0 1 .292-.2c.259-.075.493-.167.401-.493s-.334-.259-.543-.242a2.94 2.94 0 0 0-1.335.175c-.342.2-.71 0-1.06-.083a.274.274 0 0 1-.184-.292q0-.056.025-.105a.23.23 0 0 1 .276-.12zm.968 1.294c-.167.567-.175 1.018-.634 1.118-.46.1-.501-.467-.735-.784.484.309.868.092 1.369-.35zm-3.172-1.069c.292.952-.167 1.895.526 2.763a3.34 3.34 0 0 1-.526-2.78zm-21.501.242c2.413-.183 4.833-.116 7.245-.225 1.052-.042 2.137.042 3.197 0 2.145-.117 4.29 0 6.427-.083h2.612c.1.342-.1.425-.233.534-.727.617-1.494 1.185-2.179 1.844-1.285 1.236-2.879 1.42-4.524 1.353a1.77 1.77 0 0 0-1.427.409 21.5 21.5 0 0 1-2.612 1.669 3.4 3.4 0 0 1-1.778.309 22 22 0 0 1-2.279-.167c.626-.568 1.127-1.035 1.67-1.478a5.23 5.23 0 0 1 2.662-1.477 6.2 6.2 0 0 0 1.995-1.11.27.27 0 0 0 .125-.134.27.27 0 0 0 .008-.183c-.075-.184-.233-.159-.384-.092-.509.217-1.16.1-1.519.651h-.05c-.242.217-.584.125-.834.3-.468.301-.484.268-.635-.325a1.07 1.07 0 0 0-1.168-.476.4.4 0 0 0-.175.484c.058.176.217.184.383.142a.34.34 0 0 1 .359.05 2.5 2.5 0 0 1-1.268 1.837c-.084 0-.176-.05-.184-.084-.334-1.018-.35-1.035-1.41-1.043h-4.775c-.834 0-.909-.084-.901-.902-.034-2.103-.109-1.677 1.652-1.82zm-1.435 8.898c.918.117 1.828-.084 2.746 0a2.3 2.3 0 0 1 .951.117c-.909.425-1.844 0-2.771.292a.9.9 0 0 0 .835.4c1.01.059 2.02.1 3.021.084.635 0 1.269.259 1.912 0 .234-.092.284.167.292.35v5.334c0 .835-.15.927-.993.835a14.3 14.3 0 0 0-2.93-.084c-.184 0-.401 0-.392.267.008.267.208.259.392.3 1.16.226 1.177.234 1.127 1.403a154 154 0 0 0-.125 8.814v.55c0 .318-.184.543-.518.543a7.4 7.4 0 0 1-2.011-.091.577.577 0 0 1-.493-.643c0-1.962 0-3.923.067-5.843.058-1.36-.058-2.746-.058-4.123 0-.6 0-.6.651-.626q.182.005.358-.042a.3.3 0 0 0 .217-.267c0-.2-.141-.242-.3-.25a362 362 0 0 0-4.273-.384 5 5 0 0 1-1.002-.142c-.743-.192-.91-.092-1.068.651-.192.96-.359 1.92-.568 2.88s-.467 1.97-.668 2.954a.706.706 0 0 1-.909.651 49 49 0 0 0-1.553-.167c-2.554-.25-5.116-.417-7.679-.692-2.404-.25-4.816-.376-7.228-.593s-4.565-.46-6.844-.684c-1.16-.109-2.32-.21-3.48-.292-.568-.042-.61 0-.568.625 0 .3.042.61.067.919-.426-.1-.1-.484-.301-.651a.283.283 0 0 0-.392.116c-.259.476-.568.935-.835 1.411-1.01 1.928-1.944 3.89-2.988 5.8a6.8 6.8 0 0 0-.768 3.24c0 1.735-.058 3.488-.116 5.224a1.03 1.03 0 0 0 .742 1.202c.284.1.551.275.835.384s.492.117.626-.167-.067-.4-.25-.526a1.4 1.4 0 0 0-.251-.117 1.194 1.194 0 0 1-.834-1.494q.195-2.199.166-4.407c0-.834.051-.784.885-.943q1.323-.075 2.646 0c.367 0 .484.192.459.526-.117 1.31.05 2.63-.142 3.948q-.05 1.097.017 2.195c0 .584-.142 1.152-.125 1.736 0 .36-.242.484-.568.4a6.2 6.2 0 0 1-1.469-.483c-.834-.451-1.319-.192-1.561.684a7.75 7.75 0 0 0 .117 3.906 1.61 1.61 0 0 1-.336 1.407 1.6 1.6 0 0 1-1.333.563 1.06 1.06 0 0 0 .083-1.127c-.217-.6-.359-1.235-.609-1.828a7.15 7.15 0 0 1-.451-3.154c.126-2.655.217-5.309.318-7.972 0-.409 0-.834.534-.951.225-.058.309-.267.4-.467 1.277-2.78 2.613-5.534 4.082-8.23.275-.51.517-1.043.784-1.553.368-.709.434-.684 1.219-.6 1.756.255 3.526.411 5.3.467.626 0 .693-.084.835-.718a4.4 4.4 0 0 0 .1-1.185V49.76c.108 0 .2.041.2.058.092.993.793 1.21 1.611 1.227q1.736 0 3.481.2.69.026 1.368.15c.36.081.734.081 1.094 0 .576-.116.709-.267.743-.834.083-1.586.2-3.172.158-4.775 0-.834.059-.984.943-.934 1.219.075 1.378-.384 1.353-1.536 0-.743.125-1.452.166-2.187s.226-.693.935-.768c1.286-.133 2.554.126 3.84-.05a16 16 0 0 1 2.011.05c2.421 0 4.841 0 7.262.084.834 0 .876.092.884.91q.024.782-.066 1.56c-.084.793.2 1.11.993 1.202zm-21-1.436a5.2 5.2 0 0 1 2.654.384c.351.117.418.468.392.885-.634 0-.909-.668-1.452-.743s-1.11-.008-1.594-.542zm15.783-7.462c1.186-.075 2.379-.1 3.564-.108.835 0 .977.225.927.985 0 .384-.192.534-.568.55-.779.141-1.57.211-2.362.21a.9.9 0 0 0-.359 0 .284.284 0 0 0-.192.284.26.26 0 0 0 .217.258c.418 0 .835.05 1.302.075a2.67 2.67 0 0 1-1.46.142c-.601-.084-1.219 0-1.828-.075-.61-.075-.71-.142-.701-.718.008-1.753-.075-1.527 1.46-1.62zm-1.043 3.256a.78.78 0 0 0 .676.167 23 23 0 0 0 3.923-.368c.542-.133.726 0 .784.476.084.71-.083 1.002-.684 1.01-1.102 0-2.212.067-3.339 0-1.886-.133-3.781-.108-5.675-.15a9.7 9.7 0 0 1-2.696-.267c1.961-.384 3.814-.768 5.676-1.102a1.37 1.37 0 0 1 1.335.217zm-13.68-2.162c3.531-.601 7.07-.242 10.608-.225a3.95 3.95 0 0 1 1.67.175l-10.559 1.294c-1.335.166-2.662.358-3.998.5-1.343.113-2.695.08-4.031-.1-.992.038-1.984-.05-2.955-.259 3.114-.459 6.202-.868 9.265-1.385m-12.62 2.262a12 12 0 0 1 1.561.058q.544.074 1.093.084l6.218.233c.601 0 .685.109.718.702v1.377c0 .834-.1.901-.876.926h-1.235a984 984 0 0 0-7.295-.325c-.501 0-.752-.242-.785-.701-.033-.46 0-1.16-.05-1.745.025-.426.234-.617.651-.61m-2.237.943c.735.05.952.3.968 1.06v1.01c0 .6.167.71.76.835 1.227.242 2.454.5 3.672.768q.404.098.777.283a.494.494 0 0 1 .283.61c-.066.258-.283.292-.509.292h-2.946l-8.998-.184c-1.035 0-1.218-.225-1.227-1.26-.008-1.035 0-1.845 0-2.763s.209-1.077 1.044-1.035zm-21.2-3.89a.52.52 0 0 1 .355-.538.5.5 0 0 1 .229-.02h1.01c1.669 0 3.339.074 5.008 0 3.297-.193 6.611-.084 9.907-.168h1.519a10.6 10.6 0 0 1-3.981 2.68 10 10 0 0 0-1.11.434 1.25 1.25 0 0 1-1.21.058c-.459-.242-1.018 0-1.536-.067-.517-.066-1.077 0-1.619 0l-.05-.192 1.127-.834q.337-.239.617-.543c.226-.284.1-.593-.242-.576-.918 0-1.836.067-2.746.175-.451.059-.534.426-.434.835.1.41.259 1.102-.451 1.486-.325-1.027-.333-1.027-1.36-1.035l-4.173-.05c-.793 0-.835-.1-.835-.927-.025-.283-.025-.5-.025-.718m-4.465-.442a8.3 8.3 0 0 1 1.368 0 6 6 0 0 0 1.544-.058c.568-.075.693.066.727.642.083 1.403 0 1.453-1.353 1.461h-.834v-.1q-.78.045-1.561 0c-.676-.084-.768-.226-.76-.893.017-.893.026-1.01.852-1.052zm-2.079 2.663a2.08 2.08 0 0 1 1.72.4c.233.226.584.134.884.134h3.189c-3.439.392-6.844 0-10.266.092a37 37 0 0 1 4.473-.626m-11.994-1.302a35.8 35.8 0 0 1 8.522-.535c.977.059 1.953.167 3.08.167a12 12 0 0 1-2.838.418q-3.607.448-7.203.834a50 50 0 0 1-5.116.084 4 4 0 0 1-1.277-.25c1.594-.251 3.221-.418 4.832-.718m-1.577 4.031a13.5 13.5 0 0 0-1.928-.084c-1.67 0-3.222-.333-4.85-.383-.617 0-.717-.21-.642-.835.15-1.31.15-1.31.951-1.285 2.83.15 5.083.267 7.345.4.584 0 .726.15.718.718-.017 1.41.309 1.744-1.594 1.469m-17.445-3.856c.435 0 .668-.125.718-.618.084-.834.117-.834.935-.834h5.417c.25 0 .543 0 .659.233.276.568.76.51 1.261.501 1.035 0 2.045.242 3.088.125v.25c-1.386.21-2.779.351-4.173.627-1.425.162-2.862.18-4.29.05-1.87 0-3.731 0-5.601-.067a9.6 9.6 0 0 1 1.986-.267m-2.896.776c1.311.175 2.629 0 3.931.276.281.023.563-.003.835-.076.61-.06 1.225.014 1.803.217a.633.633 0 0 1 .484.693v1.094c0 .358-.184.617-.618.609h-2.011a21.5 21.5 0 0 1-2.921-.15c-.71-.142-1.453.083-2.187 0-.735-.084-.76-.15-.835-.835v-.367c-.05-1.478.092-1.661 1.544-1.46zm-17.135 2.162.476.058c.734.1.984-.066 1.009-.776v-2.855a.705.705 0 0 0-.584-.835c-.484-.116-.642.201-.776.577-.192-.192-.092-.41-.109-.601 0-.392.201-.551.576-.543a16 16 0 0 1 2.02 0c1.586.209 3.18.092 4.774.15 1.194.042 1.261.11 1.102 1.27-.075.517 0 1.043-.133 1.552-.159.734.334 1.035.993.834.835-.275 1.669-.35 2.504-.55a16 16 0 0 1 2.504-.393c.459 0 .609.117.592.551-.016.434 0 1.102 0 1.67 0 .834.092.9.835.968h.551c.693.1 1.419.133 1.811.834 1.252.618 1.553 1.803 1.82 3.022.256.722.438 1.469.542 2.228 0 .468.317.634.726.643h2.02q1.674-.041 3.339.133c.976.142 1.277-.15 1.302-1.143a18 18 0 0 1 .15-3.205q.029-.228.084-.45a.265.265 0 0 1 .275-.201.274.274 0 0 1 .284.192q.08.312.083.634c0 2.17 0 4.349-.083 6.519 0 .776.092.935.835.993q2.504.175 5.007.326c.51 0 .718-.176.718-.835 0-.927.201-1.828.217-2.788.886.199 1.789.316 2.696.35 1.06.134 2.137.184 3.205.285s1.269 0 1.269-1.16v-3.898c.05-.61.117-.677.701-.727q.23-.012.459 0a.65.65 0 0 0 .693-.7v-1.47c.067-1.185.334-1.394 1.477-1.235a23 23 0 0 0 3.581.075c2.27-.05 4.532.217 6.794.192.634 0 .726.117.734.776.041.52.01 1.042-.091 1.553-.142.542 0 .71.576.768h.918c1.377 0 2.754 0 4.131.133.551.05.785-.133.902-.684q.072-.415.066-.835c0-.45 0-.91.05-1.36.101 1.928 0 3.856-.058 5.775 0 .551 0 1.11-.042 1.67-.041.559-.183.76-.784.71-2.412-.201-4.825-.276-7.245-.343-1.01 0-1.169.075-1.319 1.077a34 34 0 0 1-.834 3.672c-.201.785-.259.835-1.086.793a235 235 0 0 1-5.391-.434c-1.795-.159-3.339-.334-5.008-.467-2.738-.217-5.484-.426-8.23-.701-1.277-.126-2.554-.284-3.848-.284a1.6 1.6 0 0 0-1.594.834q-.227.36-.492.693c-.059-.317 0-.576-.05-.834-.226-.752-.526-1.027-1.311-1.044-.609 0-1.227 0-1.836.05-.768.059-.952.267-.968 1.044q.004.456.058.91c.125 1.785-.225 3.547-.192 5.324 0 .36-.092.626-.534.493-.317-.1-.601.1-.91.075-.609 0-.91-.275-.834-.835.317-1.911 0-3.856.325-5.767.05-.317.075-.61.501-.634.426-.026.584.15.584.709q0 2.563-.083 5.133c-.046.24-.046.486 0 .726a.309.309 0 0 0 .514.153.3.3 0 0 0 .087-.161 1.7 1.7 0 0 0 .05-.45c-.059-1.962.258-3.915.208-5.843 0-.735 0-.785-.734-.835-1.344-.125-2.688-.275-4.032-.334-2.228-.1-4.457-.409-6.677-.459-2.504-.058-5.058-.434-7.595-.492-.718 0-.835-.084-.693-.835.217-1.31.092-2.63.209-3.94.083-.943-.526-1.343-1.311-1.385s-1.402-.067-2.103-.092c-.259 0-.509-.042-.501-.392.084-1.035.084-2.154.134-3.322m-1.16-.284c-.059 1.803.075 3.614-.126 5.417-.05.426 0 .835-.058 1.285 0 1.035 0 2.07-.125 3.105 0 .418.058.676.434.776.526.15.617.51.592.985-.025.476 0 .919 0 1.378 0 .192 0 .392.284.383.284-.008.209-.183.226-.333 0-.551.083-1.102.116-1.67 0-.367.184-.576.568-.567h.275c1.111 0 1.077 0 1.127 1.068-.102.899.001 1.81.301 2.663a6 6 0 0 0 .392-2.229v1.853c0 .376.1.835-.509.893-.234 0-.175.334-.175.56 0 .225.584.2.333.425a.9.9 0 0 0-.375.543q-.06.363-.184.709c-.075.2-.292.217-.476.192a12 12 0 0 1-1.085-.175c-.359-.075-.359-.31-.367-.568v-1.928a1.36 1.36 0 0 0-.2-1.018c-.484.492-.251 1.093-.242 1.61.008.518-.359 1.12-.309 1.72v-4.833c0-.634 0-1.218-.701-1.535-.334-.142-.392-.51-.409-.835 0-.593.142-1.16.142-1.736 0-2.362.3-4.707.233-7.07V40c-.05-.742-.217-.918-.951-.943h-1.377c-.234 0-.501 0-.651-.375a9.2 9.2 0 0 1 2.621 0 .65.65 0 0 1 .634.71zm-7.704-2.362a.974.974 0 0 1 1.127-.417 1.45 1.45 0 0 0 1.485-.518c1.294-1.569 3.03-1.419 4.799-1.218a6.14 6.14 0 0 1-4.29 1.911c-.296.01-.584.1-.834.259-.543.283-1.069.592-1.67.834-.3.126-.734.2-.943-.075s.184-.55.326-.776m1.544 3.155c-.1-1.018-.1-1.018-.76-1.46a.6.6 0 0 1 .134-.126l.835-.476a7.2 7.2 0 0 1-.209 2.037zm-3.664 16.693c.35 0 .284-.484.292-.785v-4.407c0-2.078.242-4.173.217-6.234a1.18 1.18 0 0 1 .242-.768c.534-.71 1.043-1.436 1.577-2.145.142-.192.268-.384.585-.35.717.074.717.05.726-.635 0-.117-.042-.242.15-.376.05.41.084.785.142 1.16a.4.4 0 0 0 .147.276.4.4 0 0 0 .304.075c.242 0 .25-.284.409-.392a.67.67 0 0 0 .275.542c.292.175.501 0 .701-.2.167.317 0 .55 0 .834s.142.493.476.418a.52.52 0 0 1 .568.183s.834.91.834.944a.59.59 0 0 0 .443.425c.492.075.592.418.517.835a20 20 0 0 0-.108 3.021 1.41 1.41 0 0 0 .667 1.486.75.75 0 0 1 .359.835 33 33 0 0 0-.133 3.931q.043.505 0 1.01c-.084.542-.142 1.027.534 1.26.275.092.242.4.192.643-.05.242-.259.325-.493.325s-.592.042-.667.36c-.159.642-.643.575-1.094.534a161 161 0 0 1-4.015-.401 68 68 0 0 1-3.18-.41c-1.051-.166-.984-.208-1.093-1.143-.042-.408-.275-.826.426-.876zm-36.4-.701a.71.71 0 0 1-.834.476c-.66-.134-1.336-.176-1.995-.267a1.52 1.52 0 0 1-1.194-2.045 1.11 1.11 0 0 1 1.294-.35.53.53 0 0 1 .084.517c-.067.359-.159.718-.192 1.076a.543.543 0 0 0 .392.643.526.526 0 0 0 .676-.309 4.5 4.5 0 0 0 .568-1.444c0-.309 0-.634.459-.66a.835.835 0 0 1 .893.735q.025.322 0 .643c.026.327-.026.656-.15.96zm4.917.476a.457.457 0 0 1-.446.442.46.46 0 0 1-.222-.05 2.8 2.8 0 0 1-.651-.484c-.276-.25.1-.434.092-.643a1 1 0 0 1 .231-.807 1 1 0 0 1 .762-.353 2.09 2.09 0 0 1 .234 1.87zm3.146.167a1.84 1.84 0 0 1-.834.492c-.201.05-.409 0-.384-.225.041-.468-.142-.91-.126-1.37a1.6 1.6 0 0 1 0-.275c0-.183.076-.4.276-.433a.52.52 0 0 1 .542.267c.116.341.331.64.618.86.175.183.092.458-.092.659zm4.482 0c-.442-.059-.576.142-.617.567-.075.651-.109.651-.743.568-.15 0-.301-.05-.451-.059-.451 0-.467-.258-.35-.626.3-.918.509-1.051 1.477-.91.317.05.634.126.951.184-.033.15-.141.234-.267.217zm13.138 2.045a1.61 1.61 0 0 1-1.336.383l-7.386-.717c-.393-.042-.777-.134-1.269-.217.2-.618.718-1.027.409-1.67-.05-.091.117-.183.242-.217a6.4 6.4 0 0 0 1.494-.65c.226-.1.472-.142.718-.126 1.649.059 3.294.217 4.924.476.443.05.835.142.835.743a.54.54 0 0 0 .05.227.525.525 0 0 0 .584.29c.401-.05.459-.325.326-.684-.075-.2.075-.267.242-.267a.7.7 0 0 1 .835.768 2.03 2.03 0 0 1-.668 1.66m-9.023-4.307a69 69 0 0 1 7.963.668c-2.654-.192-5.325-.234-7.963-.668m9.857 4.799c.835-.217 1.369-.901 2.379-1.143-1.06 1.352-1.06 1.352-2.379 1.143m.835-1.102v-.492c0-1.069 0-1.077 1.11-.877a2.93 2.93 0 0 0 1.87-.041l.05.192zm2.988-22.06c-.292 2.746-.267 5.684-.509 8.614-.05.701 0 1.41-.058 2.112-.151 2.445-.301 4.882-.493 7.32-.067.834-.125.793-.976.717-2.738-.25-5.467-.659-8.213-.834-1.862-.134-3.706-.443-5.551-.685-.835-.108-1.669-.066-2.554-.15-1.102-.1-2.195-.184-3.28-.376-1.578-.275-3.172-.208-4.749-.409-.835-.108-1.019-.225-.918-1.018.258-2.045 0-4.098.167-6.143.208-2.896.15-5.842.517-8.697.083-.668.159-.785.835-.776 1.961.042 3.914-.184 5.842-.25 3.339-.11 6.602-.351 9.899-.518 2.721-.142 5.434-.259 8.155-.392.275 0 .542-.084.834-.117.835-.075.994.083 1.002.885zm.693.242c.067 3.998-.467 7.963-.593 11.953-.075-4.032.351-8.021.593-11.978zm2.838 23.746a30 30 0 0 1-3.18-.434 2.1 2.1 0 0 1 1.419-.65 8.3 8.3 0 0 1 1.919.308.36.36 0 0 1 .276.145.36.36 0 0 1 .058.306c-.058.275-.267.342-.492.3zm-2.396 5.534c0-.05.067-.125.109-.142a1.67 1.67 0 0 0 1.051-1.143 2.37 2.37 0 0 1-.901 1.911c-.242.217-.593.317-.568.743 0 .159-.141.175-.267.159-.3-.042-.634-.05-.768-.384a3 3 0 0 1-.1-.643c.877.35.877.35 1.444-.526zm-6.151-.309q.193.122.367.267c.509.317.593.293.885-.242q.067-.169.183-.308c.217-.2.46-.376.835-.652a2.5 2.5 0 0 1-.876 1.995c-.226.284-.768.1-1.11-.066a1 1 0 0 1-.493-.835.174.174 0 0 1 .135-.157.2.2 0 0 1 .074-.002m-2.98-2.504q.262.096.493.25c.275.176.517.301.834 0 .317-.3.559-.05.835.093a6.6 6.6 0 0 1-1.669.492.667.667 0 0 1-.777-.626c0-.15.126-.209.284-.209"/></g><defs><clipPath id="a"><path fill="#fff" d="M79.65 33.692h269.543v134.772H79.65z"/></clipPath></defs></svg>