<svg xmlns="http://www.w3.org/2000/svg" width="429" height="203" fill="none"><g fill="#1F1F1F" clip-path="url(#a)"><path d="m181.563 78.239-5.145 44.311h-14.309c-1.278-6.809-2.449-14.579-3.481-23.31-.527 3.762-1.605 11.532-3.246 23.31h-14.227l-5.18-44.311h11.156l1.219 15.47 1.184 15c.492-7.77 1.57-17.93 3.235-30.47h11.86c.105 1.312.515 6.187 1.207 14.625l1.406 16.911c.691-10.77 1.746-21.282 3.176-31.548h11.157zm9.809 22.114H181v-2.45c0-2.812.328-4.992.973-6.516.644-1.523 1.945-2.883 3.902-4.043 1.957-1.172 4.489-1.758 7.606-1.758 3.739 0 6.563.657 8.462 1.98 1.898 1.325 3.035 2.942 3.422 4.876.386 1.922.574 5.895.574 11.895v18.224H195.18v-3.258c-.679 1.312-1.546 2.297-2.613 2.953s-2.344.985-3.82.985a9.34 9.34 0 0 1-5.333-1.629c-1.617-1.09-2.426-3.458-2.426-7.126v-2.977c0-2.718.434-4.57 1.289-5.555.856-.984 2.989-2.132 6.387-3.445 3.634-1.418 5.579-2.379 5.837-2.871q.387-.739.386-3.024c0-1.898-.14-3.14-.421-3.715-.282-.574-.762-.867-1.418-.867-.75 0-1.219.246-1.407.727-.187.48-.269 1.746-.269 3.773zm3.515 4.98c-1.781 1.289-2.812 2.379-3.093 3.247s-.422 2.133-.422 3.762c0 1.875.129 3.082.375 3.621.246.551.738.82 1.476.82.739 0 1.149-.211 1.36-.644s.316-1.547.316-3.364v-7.442zm23.815-19.067-.387 4.817c1.594-3.458 3.914-5.298 6.95-5.497v12.81c-2.028 0-3.516.269-4.465.82q-1.425.825-1.758 2.285c-.223.973-.329 3.223-.329 6.739v14.321h-11.051V86.266h11.051zm31.97 18.775h-14.286v7.852c0 1.64.118 2.695.352 3.176.234.468.691.714 1.359.714.832 0 1.395-.316 1.676-.949q.422-.949.422-3.656v-4.793h10.466v2.683c0 2.25-.141 3.973-.422 5.18s-.938 2.496-1.981 3.868a9.63 9.63 0 0 1-3.949 3.082c-1.594.68-3.598 1.031-6.001 1.031-2.402 0-4.394-.34-6.176-1.008-1.781-.679-3.176-1.605-4.172-2.777a10 10 0 0 1-2.063-3.891c-.386-1.418-.574-3.469-.574-6.176V98.783c0-3.177.434-5.684 1.289-7.524.856-1.829 2.262-3.235 4.208-4.22 1.945-.972 4.183-1.464 6.727-1.464 3.094 0 5.648.586 7.664 1.77 2.016 1.171 3.422 2.742 4.231 4.675.808 1.946 1.219 4.676 1.219 8.204v4.817zm-11.063-5.86v-2.66c0-1.887-.105-3.106-.305-3.657-.199-.55-.609-.82-1.23-.82-.762 0-1.242.234-1.418.703-.188.469-.27 1.723-.27 3.774v2.66zm143.001 5.86h-14.286v7.852c0 1.64.117 2.695.351 3.176.235.468.692.714 1.36.714.832 0 1.394-.316 1.676-.949q.422-.949.422-3.656v-4.793h10.465v2.683c0 2.25-.141 3.973-.422 5.18s-.949 2.496-1.98 3.868a9.63 9.63 0 0 1-3.95 3.082c-1.594.68-3.598 1.031-6 1.031s-4.395-.34-6.176-1.008c-1.782-.679-3.176-1.605-4.172-2.777a10 10 0 0 1-2.063-3.891c-.387-1.418-.574-3.469-.574-6.176V98.783c0-3.177.433-5.684 1.289-7.524.855-1.829 2.262-3.235 4.207-4.22 1.946-.972 4.184-1.464 6.727-1.464 3.094 0 5.649.586 7.665 1.77 2.015 1.171 3.422 2.742 4.23 4.675.809 1.946 1.219 4.676 1.219 8.204v4.817zm-11.063-5.86v-2.66c0-1.887-.106-3.106-.305-3.657-.199-.55-.609-.82-1.231-.82-.761 0-1.242.234-1.418.703-.187.469-.269 1.723-.269 3.774v2.66zM263.248 78.238v9.996c.949-.89 1.969-1.558 3.07-1.992a9.4 9.4 0 0 1 3.539-.668c1.934 0 3.575.492 4.934 1.477 1.36.984 2.18 2.121 2.485 3.41s.457 3.633.457 7.043v25.045h-11.052V97.001q0-3.165-.316-4.079c-.211-.597-.668-.902-1.395-.902-.668 0-1.125.305-1.359.926q-.351.93-.352 3.691v25.9h-11.051v-44.3h11.051zm41.264 20.767v8.907c0 3.27-.164 5.661-.492 7.184s-1.031 2.953-2.11 4.278-2.461 2.297-4.148 2.93c-1.688.632-3.622.949-5.813.949-2.449 0-4.512-.27-6.211-.809s-3.012-1.348-3.95-2.437c-.937-1.09-1.605-2.403-2.016-3.95-.398-1.547-.597-3.856-.597-6.938v-9.317q0-5.063 1.09-7.91t3.937-4.57q2.848-1.725 7.278-1.724c2.485 0 4.606.375 6.387 1.114 1.782.738 3.153 1.699 4.114 2.894.961 1.184 1.629 2.415 1.98 3.669.352 1.254.539 3.176.539 5.754zm-11.051-2.73c0-1.864-.106-3.036-.305-3.516s-.633-.727-1.289-.727-1.09.246-1.313.727c-.222.48-.328 1.652-.328 3.516v16.383c0 1.712.106 2.837.328 3.352.223.516.645.785 1.289.785.645 0 1.09-.234 1.301-.714.211-.469.317-1.501.317-3.059zm37.911-10.009v36.295h-11.251l.199-3.035c-.773 1.242-1.723 2.168-2.848 2.789s-2.426.926-3.891.926q-2.496 0-4.148-.879c-1.102-.586-1.91-1.36-2.426-2.332a8.3 8.3 0 0 1-.973-3.024c-.129-1.043-.187-3.129-.187-6.258V86.266h11.051v24.693c0 2.824.082 4.5.27 5.028.175.527.656.796 1.429.796.832 0 1.325-.269 1.489-.82.152-.551.234-2.309.234-5.274V86.266zM355.83 97.81h-9.785v-1.946c0-1.664-.094-2.707-.293-3.152-.2-.446-.68-.668-1.453-.668-.622 0-1.102.21-1.407.62-.316.41-.469 1.032-.469 1.852 0 1.114.082 1.934.235 2.45.152.515.621 1.09 1.406 1.71.774.622 2.379 1.524 4.793 2.708 3.223 1.57 5.333 3.047 6.341 4.43q1.51 2.074 1.511 6.047c0 2.953-.386 5.192-1.148 6.692s-2.051 2.66-3.844 3.481c-1.793.808-3.961 1.218-6.504 1.218-2.813 0-5.216-.433-7.22-1.312s-3.375-2.063-4.125-3.551c-.75-1.5-1.125-3.75-1.125-6.786v-1.746h9.786v2.285c0 1.946.129 3.2.375 3.786s.75.867 1.488.867c.797 0 1.36-.199 1.664-.586.317-.387.469-1.219.469-2.473 0-1.734-.199-2.824-.597-3.258-.422-.433-2.579-1.734-6.458-3.891-3.258-1.828-5.25-3.48-5.953-4.969-.715-1.488-1.067-3.258-1.067-5.297 0-2.906.387-5.04 1.149-6.422.761-1.383 2.062-2.438 3.902-3.188 1.828-.75 3.961-1.125 6.387-1.125s4.454.305 6.141.914c1.688.61 2.977 1.418 3.879 2.415.903.996 1.454 1.933 1.641 2.777.188.856.293 2.192.293 4.008v2.098zM65.284 91.633H54.619V88.4c0-1.512-.14-2.473-.41-2.883s-.739-.621-1.383-.621c-.703 0-1.23.281-1.582.832-.364.55-.54 1.406-.54 2.531 0 1.453.212 2.555.645 3.282.41.738 1.5 1.64 3.27 2.718 5.086 3.106 8.309 5.626 9.633 7.583 1.336 1.957 2.004 5.098 2.004 9.434 0 3.153-.375 5.473-1.113 6.973s-2.168 2.742-4.29 3.762c-2.12 1.008-4.593 1.512-7.406 1.512q-4.64 0-7.91-1.758c-2.18-1.172-3.622-2.66-4.29-4.465-.68-1.805-1.008-4.371-1.008-7.7v-2.906h10.665v5.379c0 1.664.152 2.719.457 3.199.305.469.856.715 1.629.715s1.36-.304 1.746-.902c.375-.598.574-1.488.574-2.672 0-2.602-.363-4.289-1.078-5.098-.738-.797-2.531-2.145-5.379-4.032-2.848-1.91-4.746-3.293-5.672-4.148-.926-.856-1.7-2.04-2.309-3.551q-.915-2.268-.914-5.801c0-3.387.434-5.872 1.3-7.442.868-1.57 2.263-2.79 4.196-3.68 1.934-.879 4.266-1.324 6.997-1.324 2.988 0 5.531.48 7.64 1.441s3.505 2.18 4.185 3.645 1.031 3.95 1.031 7.453v1.747zm14.004-13.395H67.744v44.311h11.544zm28.666 16.337H96.41V90.58c0-2.52-.105-4.102-.328-4.735s-.738-.95-1.559-.95c-.715 0-1.195.27-1.453.821s-.387 1.946-.387 4.208v21.223c0 1.981.13 3.294.375 3.926.246.633.75.938 1.512.938.82 0 1.383-.352 1.676-1.067.293-.714.445-2.097.445-4.148v-5.25h-2.25v-6.75h13.501v23.766h-7.29l-1.078-3.176c-.785 1.371-1.77 2.403-2.965 3.106s-2.602 1.055-4.23 1.055c-1.934 0-3.75-.469-5.438-1.407-1.688-.937-2.965-2.098-3.844-3.492a11 11 0 0 1-1.64-4.372c-.224-1.523-.33-3.808-.33-6.855V94.259c0-4.231.224-7.301.68-9.223q.686-2.866 3.938-5.274 3.253-2.39 8.403-2.39c3.434 0 6.188.69 8.415 2.073s3.68 3.024 4.359 4.934q1.02 2.849 1.02 8.298v1.91z"/><path d="M135.987 78.238v44.311h-10.079l-5.965-20.146v20.146h-9.587V78.238h9.587l6.457 19.946V78.238zm250.15 38.487h-.012a3.16 3.16 0 0 0-3.152 3.176c0 1.769 1.406 3.187 3.152 3.187s3.129-1.394 3.129-3.187-1.383-3.176-3.117-3.176m0 5.871c-1.406 0-2.555-1.184-2.555-2.695 0-1.512 1.149-2.684 2.543-2.684h.012c1.406 0 2.543 1.195 2.543 2.695s-1.125 2.696-2.543 2.684"/><path d="M387.297 120.874c-.07-.527-.281-.809-.598-.856v-.023c.387-.117.692-.398.692-.856 0-.339-.117-.574-.328-.738-.211-.152-.563-.269-1.102-.269-.422 0-.703.046-.996.082v3.539h.562v-1.524h.399c.457 0 .68.164.762.621.07.469.152.786.234.903h.598c-.059-.117-.141-.328-.223-.879m-1.359-1.09h-.411v-1.195c.094-.012.223-.024.411-.024.632 0 .855.305.855.621 0 .434-.398.61-.855.61z"/></g><defs><clipPath id="a"><path fill="#fff" d="M39.396 76.738h350.41v49.221H39.396z"/></clipPath></defs></svg>