<svg width="429" height="203" viewBox="0 0 429 203" fill="none" xmlns="http://www.w3.org/2000/svg">
<g clip-path="url(#clip0_2884_27863)">
<g clip-path="url(#clip1_2884_27863)">
<path d="M210.807 120.905C210.807 124.503 209.534 127.578 206.992 130.127C204.418 132.644 201.354 133.906 197.795 133.906C194.265 133.906 191.216 132.644 188.642 130.127C186.131 127.548 184.874 124.476 184.874 120.905V102.69H190.033V120.905C190.033 123.064 190.781 124.893 192.276 126.393C193.803 127.924 195.641 128.687 197.795 128.687C199.948 128.687 201.772 127.924 203.27 126.393C204.823 124.865 205.602 123.034 205.602 120.905V102.69H210.807V120.905ZM217.531 102.69L238.259 121.375V102.69H243.464V133.86V133.815V133.906L222.689 115.221V133.86H217.531V102.69ZM318.18 128.688C319.615 128.688 320.961 128.42 322.219 127.879C323.455 127.353 324.576 126.588 325.516 125.628C326.459 124.669 327.212 123.54 327.736 122.301C328.278 121.041 328.546 119.707 328.546 118.298C328.546 116.889 328.278 115.554 327.736 114.294C327.209 113.052 326.448 111.922 325.494 110.967C324.543 110.01 323.415 109.246 322.174 108.718C320.913 108.176 319.553 107.9 318.18 107.907H312.976V128.688H318.18ZM307.818 102.69H318.18C320.305 102.69 322.31 103.103 324.194 103.928C326.077 104.751 327.73 105.875 329.151 107.3C330.573 108.725 331.691 110.38 332.515 112.271C333.338 114.159 333.75 116.17 333.75 118.298C333.75 120.428 333.338 122.434 332.515 124.324C331.691 126.212 330.579 127.87 329.174 129.297C327.768 130.719 326.114 131.845 324.216 132.671C322.315 133.493 320.305 133.906 318.18 133.906H307.818V102.69ZM255.365 120.905H264.042L266.631 115.735H255.365V107.907H271.799V102.69H250.188V133.906H271.799V128.687H255.365V120.905ZM284.661 120.905H293.337L295.927 115.735H284.661V107.907H301.093V102.69H279.483V133.906H301.093V128.687H284.661V120.905ZM348.878 114.339L353.465 123.517H345.251L347.838 128.687H356.074L358.684 133.906H364.487L348.878 102.69L333.271 133.906H339.073L348.878 114.339ZM64.3311 99.3281V133.906H98.9088C90.8318 131.508 83.5957 127.143 77.2943 120.833C71.0385 114.571 66.7105 107.371 64.3311 99.3281ZM95.5471 84.2347C95.5471 89.417 97.3182 93.7109 100.961 97.3668C104.533 100.949 108.686 102.69 113.655 102.69L113.932 102.687L114.253 102.69C119.349 102.69 123.535 100.984 127.035 97.4735L163.262 61.1361V34.9746H137.204L100.957 71.3248C97.315 74.9775 95.5451 79.2007 95.5471 84.2347ZM90.2645 34.9746H64.3311V69.5524C66.7093 61.4875 71.0462 54.2643 77.3206 47.9667L90.2645 34.9746ZM163.262 107.972L150.389 120.916C144.16 127.178 137.056 131.518 129.164 133.906H163.262V107.972Z" fill="#1F1F1F"/>
</g>
</g>
<defs>
<clipPath id="clip0_2884_27863">
<rect width="300.091" height="98.9313" fill="white" transform="translate(64.3311 35.4404)"/>
</clipPath>
<clipPath id="clip1_2884_27863">
<rect width="300.648" height="98.9313" fill="white" transform="translate(64.3311 34.9746)"/>
</clipPath>
</defs>
</svg>
